M48
INCH
T01C0.02
T02C0.035
T03C0.042
T04C0.052
T05C0.0595
T06C0.064
T07C0.086
T08C0.15
%
T01
X+008911Y+007215
X+009086Y+006211
X+006793Y+006007
X+005055Y+008593
X+003857Y+008929
X+002406Y+005967
X+004327Y+002875
X+005801Y+001131
X+007914Y+002763
X+010375Y+001306
X+012321Y+008355
X+015050Y+016927
X+015046Y+018281
X+013177Y+018281
X+015115Y+021002
X+019876Y+016153
X+022069Y+016961
X+022077Y+018304
X+023594Y+016265
X+022092Y+020933
X+026613Y+026105
X+029394Y+021030
X+029417Y+019693
X+028639Y+018280
X+032179Y+017551
X+033210Y+021711
X+036442Y+022332
X+037803Y+023702
X+039929Y+022780
X+040429Y+022780
X+040929Y+022780
X+041152Y+024348
X+042429Y+024287
X+043645Y+023520
X+040586Y+026162
X+043075Y+027619
X+043893Y+027782
X+037957Y+027543
X+032980Y+026817
X+032941Y+026192
X+038929Y+020533
X+041123Y+016403
X+041635Y+015783
X+042501Y+016872
X+039674Y+015868
X+037789Y+014059
X+033459Y+012802
X+032179Y+012300
X+033552Y+006678
X+033526Y+005649
X+032172Y+004010
X+039198Y+008796
X+044939Y+014176
X+048797Y+013066
X+048782Y+012393
X+047195Y+010678
X+048677Y+006095
X+048214Y+005710
X+047195Y+005630
X+047304Y+003138
X+049016Y+003717
X+049115Y+016400
X+050383Y+029130
X+046380Y+039641
X+032612Y+044181
X+002406Y+015065
T02
X+050870Y+015438
X+049870Y+015438
X+050803Y+021124
X+050803Y+022124
X+050803Y+023124
X+050803Y+024124
X+050803Y+025124
X+050803Y+026124
X+050803Y+027124
X+047803Y+027124
X+047803Y+026124
X+047803Y+025124
X+047803Y+024124
X+047803Y+023124
X+047803Y+022124
X+047803Y+021124
X+010146Y+009491
X+008224Y+009491
T03
X+001127Y+005102
X+016050Y+008193
X+016050Y+009193
X+016050Y+010193
X+018216Y+005930
X+019216Y+005930
X+039027Y+006396
X+040027Y+006396
X+040027Y+005396
X+040027Y+004396
X+039027Y+004396
X+039027Y+005396
X+034947Y+019891
X+034947Y+020891
X+034947Y+021891
X+034947Y+022891
X+034947Y+023891
X+048440Y+018374
X+050409Y+018374
T04
X+007710Y+027194
X+009245Y+027194
X+009754Y+019021
X+005754Y+019021
X+001254Y+019020
T05
X+020190Y+038013
X+017690Y+038013
X+015396Y+037969
X+012896Y+037968
X+023770Y+038132
X+026270Y+038132
T06
X+022985Y+003307
X+021425Y+003307
X+019865Y+003307
X+018305Y+003307
T07
X+037708Y+046377
X+037000Y+041652
X+034066Y+041654
X+032569Y+046378
X+023908Y+046378
X+019194Y+046378
X+020690Y+041654
X+023199Y+041653
X+022613Y+032850
X+018863Y+032850
X+019093Y+030960
X+014843Y+030960
X+015113Y+032850
X+006245Y+031907
X+006245Y+029750
X+001520Y+030459
X+001521Y+032615
X+001520Y+039120
X+001519Y+041276
X+006244Y+040616
X+006244Y+042773
X+009824Y+041653
X+010533Y+046378
X+026363Y+032850
X+030113Y+032850
X+033863Y+032850
X+037613Y+032850
X+044141Y+033782
X+044141Y+031462
X+044141Y+029612
X+048081Y+029612
X+048081Y+031462
X+048081Y+033782
X+048906Y+036632
X+047866Y+041654
X+046370Y+046378
X+043316Y+036632
T08
X+002756Y+002756
X+002756Y+044882
X+050000Y+044882
X+050000Y+002756
T00
M30
