G04 DipTrace 4.2.0.1*
G04 2 - Bottom.gbr*
%MOIN*%
G04 #@! TF.FileFunction,Copper,L2,Bot*
G04 #@! TF.Part,Single*
%AMOUTLINE6*
4,1,4,
-0.035999,0.036001,
0.036001,0.035999,
0.035999,-0.036001,
-0.036001,-0.035999,
-0.035999,0.036001,
0*%
G04 #@! TA.AperFunction,Conductor*
%ADD15C,0.014*%
%ADD18C,0.15*%
%ADD19C,0.125*%
%ADD20C,0.12*%
G04 #@! TA.AperFunction,CopperBalancing*
%ADD21C,0.025*%
%ADD22C,0.01299*%
G04 #@! TA.AperFunction,ComponentPad*
%ADD24C,0.125*%
%ADD33R,0.072X0.072*%
%ADD34C,0.072*%
%ADD35C,0.12*%
%ADD36C,0.15*%
%ADD38R,0.065X0.065*%
%ADD39C,0.065*%
%ADD40C,0.08*%
%ADD41R,0.082X0.082*%
%ADD42C,0.082*%
%ADD43R,0.07X0.07*%
%ADD44C,0.07*%
%ADD46C,0.079*%
%ADD47R,0.06X0.06*%
%ADD48C,0.06*%
%ADD49C,0.16*%
%ADD55C,0.06*%
G04 #@! TA.AperFunction,ViaPad*
%ADD57C,0.04*%
%ADD136C,0.021872*%
%ADD137C,0.013123*%
G04 #@! TA.AperFunction,ComponentPad*
%ADD147OUTLINE6*%
%FSLAX26Y26*%
G04*
G70*
G90*
G75*
G01*
G04 Bottom*
%LPD*%
X579993Y112945D2*
D15*
X585047D1*
X1037377Y130441D2*
X1041276Y126542D1*
X3644054Y2233021D2*
X3642816Y2231783D1*
X3992780Y2277804D2*
Y2214778D1*
X3966786Y2188785D1*
X3803806D1*
X3777806Y2162785D1*
Y1916252D1*
X4053920Y1640138D1*
X4112192D1*
X3778824Y1405719D2*
X3779622Y1469257D1*
X3777806Y1471073D1*
Y1916252D1*
X2863829Y1827802D2*
X2863339Y1828293D1*
X2207591D1*
X2082159D1*
Y1827970D1*
X1504444D1*
X2207591Y1830245D2*
Y1828293D1*
X240486Y596563D2*
Y1506329D1*
Y596563D2*
Y479463D1*
X432596Y287353D1*
X1504444Y1827970D2*
X1317576D1*
X151937Y3261295D2*
X48885Y3364348D1*
Y4472308D1*
X214189Y4637613D1*
X1053159D1*
X3770705Y4637513D2*
X3942870Y4465348D1*
X4659089D1*
X4890495Y4233942D1*
Y3663035D1*
X2390673Y4637605D2*
X2270696Y4517627D1*
X1173144D1*
X1053159Y4637613D1*
X151890Y3045690D2*
Y2725325D1*
X975278Y1901937D1*
X3320865Y2170927D2*
X3345739Y2146052D1*
Y1280029D1*
X5038211Y2912791D2*
Y3515319D1*
X4890495Y3663035D1*
X3892807Y2053117D2*
Y2134848D1*
X3918807Y2160848D1*
X4464601D1*
X4615991Y2312238D1*
X4780175D1*
X4242780Y2428547D2*
Y2513625D1*
X4341392Y2612238D1*
X4780193D1*
X4364362Y2351858D2*
X4473793Y2461289D1*
X4803180D1*
X4852030Y2510139D1*
Y2640407D1*
X4780199Y2712238D1*
X4414001Y3378025D2*
D18*
X4360493Y3431533D1*
X3907894D1*
X3761169Y3284808D1*
X4115098Y2434600D2*
D15*
X3795573Y2754125D1*
X4092786Y2277814D2*
Y2319186D1*
X3730471Y2681501D1*
X3297915D1*
X4042786Y2277810D2*
Y2253136D1*
X4085411Y2210512D1*
X4139339D1*
X4169037Y2240210D1*
Y2623416D1*
X4307371Y2761751D1*
X2319832Y4165161D2*
D18*
X2817681D1*
X3259310Y3723533D1*
X3386169Y3596673D1*
Y3284808D1*
X4808001Y3378033D2*
X4480125Y3892801D1*
X3695409D1*
X3526142Y3723533D1*
X3386169Y3583560D1*
Y3284808D1*
X3259310Y3723533D2*
X3526142D1*
X4414007Y3146025D2*
D19*
X4513354D1*
X4698346Y2961033D1*
X4808010D1*
X2261169Y3284808D2*
D18*
Y3213776D1*
X2451638Y3023308D1*
X3927444D1*
X4050160Y3146025D1*
X4276507D1*
D19*
X4414007D1*
X3256815Y4637650D2*
D15*
X3262119D1*
Y4458085D1*
X3261077Y4457043D1*
Y4417942D1*
X4183869D1*
X4637852Y3963959D1*
X982311Y4165169D2*
D18*
Y4283793D1*
X786549Y4479555D1*
X517101D1*
X370710Y4333164D1*
Y3073995D1*
X469869Y2974836D1*
X624333D1*
X2018895Y3801118D2*
Y3664245D1*
X2125434Y3557706D1*
X2524217D1*
X2626904Y3660394D1*
Y3813043D1*
X2018895Y3801118D2*
D20*
X1948845Y3916522D1*
D18*
X1795967Y4168382D1*
X1377899Y4167546D1*
X1045678Y3921060D1*
X699320Y3320430D1*
X624387Y3190488D1*
X4636846Y4637631D2*
D15*
X4685289D1*
X5097450Y4225470D1*
Y2857892D1*
X5017594Y2778037D1*
X4389215D1*
X1484169Y3095808D2*
D18*
X1511169Y3122808D1*
Y3284808D1*
X770857Y2719238D2*
D15*
Y2840386D1*
X1026280Y3095808D1*
X1484169D1*
X1768895Y3801102D2*
D18*
Y3629005D1*
X1601055Y3404895D1*
X1511169Y3284808D1*
X3217732Y1754944D2*
D15*
Y1229853D1*
X2359282Y1626289D2*
X2355593D1*
X2142385Y1413080D1*
Y330534D1*
X1987516Y1615119D2*
Y331665D1*
X1986385Y330534D1*
X4163379Y1578154D2*
Y1583168D1*
X3967323D1*
Y1586664D1*
X4249946Y1687022D2*
X4420088Y1516881D1*
Y1003970D1*
X4295568Y879450D1*
X3919677D1*
X4867584Y609278D2*
Y450907D1*
X4730301Y313623D1*
X1921453Y592844D2*
Y605026D1*
X1607349Y919130D1*
X1604924D1*
X4719417Y1067576D2*
Y1196669D1*
X4829218Y1306470D1*
X4879535D1*
X4821251Y570787D2*
Y486724D1*
X4773900Y439374D1*
X4002543D1*
X4719403Y562804D2*
X4639845Y483247D1*
X4158667D1*
X4002541Y639374D1*
D57*
X579993Y112945D3*
X1037377Y130441D3*
X3644054Y2233021D3*
X3992780Y2277804D3*
X2207591Y1830245D3*
X240486Y596563D3*
Y1506329D3*
X432596Y287353D3*
X240486Y596563D3*
X1317576Y1827970D3*
X240486Y1506329D3*
X1317576Y1827970D3*
X3320865Y2170927D3*
X3345739Y1280029D3*
X5038211Y2912791D3*
X4242780Y2428547D3*
X4115098Y2434600D3*
X3795573Y2754125D3*
X4637852Y3963959D3*
X4389215Y2778037D3*
X3217732Y1229853D3*
X4719403Y562804D3*
X890970Y721350D3*
X4867584Y609278D3*
X4821251Y570787D3*
X4719417Y1067576D3*
X4163379Y1578154D3*
X908480Y620957D3*
X791257Y276110D3*
X3892807Y2053117D3*
X4364362Y2351858D3*
X4092786Y2277814D3*
X4042786Y2277810D3*
X3780184Y2369988D3*
X3355085Y667646D3*
X3217121Y400782D3*
X3352475Y564738D3*
X2661219Y2610370D3*
X2206759Y1695933D3*
X2209058Y2093147D3*
X3293975Y2618974D3*
X2941592Y1969102D3*
X2939281Y2102866D3*
X4058529Y2616012D3*
X1504887Y1692484D3*
X1511381Y2099996D3*
X4493783Y1417429D3*
X1987516Y1615119D3*
X2359282Y1626289D3*
X385594Y892761D3*
X505385Y859165D3*
X1231971Y835318D3*
X679143Y600474D3*
X4878055Y1239092D3*
X4901450Y371505D3*
X3261077Y4417942D3*
X4112192Y1640138D3*
X3778824Y1405719D3*
X1504444Y1827970D3*
X2863829Y1827802D3*
X3297915Y2681501D3*
X4307371Y2761751D3*
X4911349Y1639785D3*
X3217732Y1754944D3*
X3967323Y1586664D3*
X3919677Y879450D3*
X4249946Y1687022D3*
X4730301Y313623D3*
X4879535Y1306470D3*
X1183144Y2790113D2*
D21*
X3764551D1*
X3826608D2*
X4268760D1*
X5078732D2*
X5159406D1*
X1183144Y2765244D2*
X3748510D1*
X3842630D2*
X4259089D1*
X5100459D2*
X5159370D1*
X1183144Y2740375D2*
X3749265D1*
X3858383D2*
X4236930D1*
X4831024D2*
X5029379D1*
X5131016D2*
X5159333D1*
X1183144Y2715507D2*
X3264559D1*
X3331280D2*
X3768230D1*
X3883251D2*
X4212063D1*
X4838524D2*
X5021879D1*
X5138533D2*
X5159316D1*
X1183144Y2690638D2*
X3250403D1*
X3770395D2*
X3809999D1*
X3908118D2*
X4187196D1*
X4850867D2*
X5026114D1*
X5134299D2*
X5159280D1*
X1183144Y2665769D2*
X3252269D1*
X3795262D2*
X3834866D1*
X3932986D2*
X4162328D1*
X4875735D2*
X5046568D1*
X5113845D2*
X5159244D1*
X1183144Y2640900D2*
X3273961D1*
X3321878D2*
X3722010D1*
X3820130D2*
X3859734D1*
X3957853D2*
X4138644D1*
X4887451D2*
X5029684D1*
X5130693D2*
X5159226D1*
X1183144Y2616031D2*
X3746878D1*
X3844997D2*
X3884602D1*
X3982722D2*
X4133621D1*
X4887451D2*
X5021898D1*
X5138479D2*
X5159190D1*
X1183144Y2591163D2*
X3771745D1*
X3869866D2*
X3909470D1*
X4007589D2*
X4133621D1*
X4887451D2*
X5025881D1*
X5134496D2*
X5159155D1*
X1183144Y2566294D2*
X3796614D1*
X3894734D2*
X3934337D1*
X4032457D2*
X4133621D1*
X4887451D2*
X5045778D1*
X5114598D2*
X5159136D1*
X1183144Y2541425D2*
X3821482D1*
X3919601D2*
X3959205D1*
X4057324D2*
X4133621D1*
X4887451D2*
X5029990D1*
X5130369D2*
X5159101D1*
X80478Y2516556D2*
X311596D1*
X409715D2*
X3846349D1*
X3944469D2*
X3984091D1*
X4082210D2*
X4133621D1*
X4887451D2*
X5021933D1*
X5138444D2*
X5159064D1*
X80478Y2491688D2*
X336463D1*
X434583D2*
X3871217D1*
X3969336D2*
X4008958D1*
X4107077D2*
X4133621D1*
X4881799D2*
X5025665D1*
X5134711D2*
X5159047D1*
X80478Y2466819D2*
X361331D1*
X459450D2*
X3896102D1*
X3994205D2*
X4033827D1*
X4857776D2*
X5045042D1*
X5115333D2*
X5159010D1*
X80478Y2441950D2*
X386198D1*
X484318D2*
X3425140D1*
X3563988D2*
X3920970D1*
X4019089D2*
X4058694D1*
X4832907D2*
X5030312D1*
X5130046D2*
X5158975D1*
X80478Y2417081D2*
X411067D1*
X509186D2*
X3425140D1*
X3563988D2*
X3945839D1*
X4043958D2*
X4070140D1*
X4838398D2*
X5021969D1*
X5138390D2*
X5158957D1*
X80478Y2392213D2*
X435951D1*
X534054D2*
X3425140D1*
X3563988D2*
X3970706D1*
X4068825D2*
X4094937D1*
X4834899D2*
X5025467D1*
X5134908D2*
X5158921D1*
X80478Y2367344D2*
X460820D1*
X558940D2*
X3425140D1*
X3563988D2*
X3995573D1*
X4093693D2*
X4133621D1*
X4816024D2*
X5044307D1*
X5116051D2*
X5158885D1*
X80478Y2342475D2*
X485688D1*
X583807D2*
X3425140D1*
X3563988D2*
X4020441D1*
X4118560D2*
X4133621D1*
X4829714D2*
X5030635D1*
X5129706D2*
X5158867D1*
X80478Y2317606D2*
X510555D1*
X608675D2*
X3431581D1*
X3557530D2*
X3967369D1*
X4838344D2*
X5022005D1*
X5138336D2*
X5158831D1*
X80478Y2292738D2*
X535423D1*
X633542D2*
X3425248D1*
X3563864D2*
X3946861D1*
X4835079D2*
X5025252D1*
X5135088D2*
X5158795D1*
X80478Y2267869D2*
X560291D1*
X658411D2*
X3428531D1*
X3560580D2*
X3945444D1*
X4620688D2*
X4743634D1*
X4816706D2*
X5043608D1*
X5116734D2*
X5158760D1*
X80478Y2243000D2*
X585159D1*
X683278D2*
X3443387D1*
X3545723D2*
X3957357D1*
X4595820D2*
X4730966D1*
X4829373D2*
X5030976D1*
X5129365D2*
X5158741D1*
X80478Y2218131D2*
X610026D1*
X708146D2*
X3431833D1*
X3557260D2*
X3786387D1*
X4570953D2*
X4722049D1*
X4838272D2*
X5022059D1*
X5138282D2*
X5158706D1*
X80478Y2193262D2*
X634894D1*
X733013D2*
X3278249D1*
X3363486D2*
X3425266D1*
X3563827D2*
X3759223D1*
X4546067D2*
X4725063D1*
X4835276D2*
X5025055D1*
X5135286D2*
X5158669D1*
X80478Y2168394D2*
X659761D1*
X757881D2*
X3272508D1*
X3372421D2*
X3428352D1*
X3560741D2*
X3742860D1*
X4521199D2*
X4742951D1*
X4817387D2*
X5042925D1*
X5117398D2*
X5158652D1*
X80478Y2143525D2*
X684630D1*
X782749D2*
X3281514D1*
X3381159D2*
X3442886D1*
X3546209D2*
X3742375D1*
X3813222D2*
X3858550D1*
X4496332D2*
X4731307D1*
X4829014D2*
X5021736D1*
X5138587D2*
X5158615D1*
X80478Y2118656D2*
X709497D1*
X807617D2*
X3310311D1*
X3381159D2*
X3432084D1*
X3557009D2*
X3742375D1*
X3813222D2*
X3857383D1*
X3928231D2*
X4722102D1*
X4838218D2*
X5021736D1*
X5138587D2*
X5158580D1*
X80478Y2093787D2*
X734365D1*
X832484D2*
X3310311D1*
X3381159D2*
X3425302D1*
X3563791D2*
X3742375D1*
X3813222D2*
X3857383D1*
X3928231D2*
X4724866D1*
X4835455D2*
X5021736D1*
X5138587D2*
X5158562D1*
X80478Y2068919D2*
X759232D1*
X857352D2*
X3310311D1*
X3381159D2*
X3428190D1*
X3560903D2*
X3742375D1*
X3813222D2*
X3847193D1*
X3938423D2*
X4742306D1*
X4818033D2*
X5021736D1*
X5138587D2*
X5158526D1*
X80478Y2044050D2*
X784101D1*
X882220D2*
X3310311D1*
X3381159D2*
X3442402D1*
X3546693D2*
X3742375D1*
X3813222D2*
X3845290D1*
X3940324D2*
X5158491D1*
X80478Y2019181D2*
X808969D1*
X907088D2*
X3310311D1*
X3381159D2*
X3432353D1*
X3556740D2*
X3742375D1*
X3813222D2*
X3859375D1*
X3926240D2*
X5158472D1*
X80478Y1994312D2*
X833836D1*
X931955D2*
X3310311D1*
X3381159D2*
X3425339D1*
X3563756D2*
X3742375D1*
X3813222D2*
X5158437D1*
X80478Y1969444D2*
X858703D1*
X956823D2*
X3310311D1*
X3381159D2*
X3428029D1*
X3561064D2*
X3742375D1*
X3813222D2*
X5158400D1*
X177975Y1944575D2*
X522541D1*
X628016D2*
X883589D1*
X1028054D2*
X3310311D1*
X3381159D2*
X3441934D1*
X3547159D2*
X3742375D1*
X3813222D2*
X5158383D1*
X191234Y1919706D2*
X509299D1*
X641240D2*
X908457D1*
X1041259D2*
X3310311D1*
X3381159D2*
X3742375D1*
X3823413D2*
X5158346D1*
X193333Y1894837D2*
X507236D1*
X643322D2*
X907238D1*
X1043322D2*
X3310311D1*
X3381159D2*
X3742375D1*
X3848281D2*
X4810467D1*
X4877297D2*
X5007310D1*
X5074175D2*
X5158311D1*
X185475Y1869969D2*
X515094D1*
X635462D2*
X915131D1*
X1035428D2*
X1296509D1*
X1338648D2*
X1483375D1*
X1525516D2*
X2182041D1*
X2233134D2*
X2843135D1*
X2884521D2*
X3310311D1*
X3381159D2*
X3742375D1*
X3873148D2*
X4784774D1*
X4903007D2*
X4981617D1*
X5099850D2*
X5158293D1*
X161343Y1845100D2*
X539298D1*
X611240D2*
X939390D1*
X1011169D2*
X1272466D1*
X2908869D2*
X3310311D1*
X3381159D2*
X3742375D1*
X3898017D2*
X4776449D1*
X4911332D2*
X4973293D1*
X5108175D2*
X5158257D1*
X80478Y1820231D2*
X1269811D1*
X2911633D2*
X3310311D1*
X3381159D2*
X3742375D1*
X3922885D2*
X4778190D1*
X4909573D2*
X4975050D1*
X5106416D2*
X5158222D1*
X80478Y1795362D2*
X1282747D1*
X2089202D2*
X2175223D1*
X2239951D2*
X2828818D1*
X2898840D2*
X3193437D1*
X3242035D2*
X3310311D1*
X3381159D2*
X3742375D1*
X3813222D2*
X3849633D1*
X3947752D2*
X4791072D1*
X4896692D2*
X4987933D1*
X5093534D2*
X5158203D1*
X80478Y1770493D2*
X3172031D1*
X3263441D2*
X3310311D1*
X3381159D2*
X3742375D1*
X3813222D2*
X3874500D1*
X3972619D2*
X5158168D1*
X80478Y1745625D2*
X3170273D1*
X3265199D2*
X3310311D1*
X3381159D2*
X3742375D1*
X3813222D2*
X3899369D1*
X3997488D2*
X5158131D1*
X80478Y1720756D2*
X3182312D1*
X3253160D2*
X3310311D1*
X3381159D2*
X3742375D1*
X3813222D2*
X3924236D1*
X4022356D2*
X4216280D1*
X4283610D2*
X5158114D1*
X80478Y1695887D2*
X3182312D1*
X3253160D2*
X3310311D1*
X3381159D2*
X3742375D1*
X3813222D2*
X3949104D1*
X4047223D2*
X4202392D1*
X4297497D2*
X5158077D1*
X80478Y1671018D2*
X2346390D1*
X2372185D2*
X3182312D1*
X3253160D2*
X3310311D1*
X3381159D2*
X3742375D1*
X3813222D2*
X3973971D1*
X4148685D2*
X4204402D1*
X4315009D2*
X4875185D1*
X4947521D2*
X5158042D1*
X80478Y1646150D2*
X1951161D1*
X2023875D2*
X2315369D1*
X2403189D2*
X3182312D1*
X3253160D2*
X3310311D1*
X3381159D2*
X3742375D1*
X3813222D2*
X3998857D1*
X4160222D2*
X4226507D1*
X4339877D2*
X4863361D1*
X4959327D2*
X5158024D1*
X80478Y1621281D2*
X1939517D1*
X2035520D2*
X2301517D1*
X2407424D2*
X3182312D1*
X3253160D2*
X3310311D1*
X3381159D2*
X3742375D1*
X3813222D2*
X3934642D1*
X4000000D2*
X4023724D1*
X4181663D2*
X4266625D1*
X4364744D2*
X4866824D1*
X4955882D2*
X5157988D1*
X80478Y1596412D2*
X1943070D1*
X2031949D2*
X2276650D1*
X2396659D2*
X3182312D1*
X3253160D2*
X3310311D1*
X3381159D2*
X3742375D1*
X3813222D2*
X3919948D1*
X4208020D2*
X4291492D1*
X4389612D2*
X4893755D1*
X4928933D2*
X4959261D1*
X80478Y1571543D2*
X1952094D1*
X2022942D2*
X2251782D1*
X2349902D2*
X3182312D1*
X3253160D2*
X3310311D1*
X3381159D2*
X3742375D1*
X3813222D2*
X3921455D1*
X4211322D2*
X4316361D1*
X4414480D2*
X4933030D1*
X80478Y1546675D2*
X216054D1*
X264923D2*
X1952094D1*
X2022942D2*
X2226913D1*
X2325033D2*
X3182312D1*
X3253160D2*
X3310311D1*
X3381159D2*
X3742375D1*
X3813222D2*
X3942249D1*
X3992392D2*
X4127448D1*
X4199318D2*
X4341228D1*
X4439348D2*
X4926033D1*
X80478Y1521806D2*
X194756D1*
X286219D2*
X1952094D1*
X2022942D2*
X2202046D1*
X2300165D2*
X3182312D1*
X3253160D2*
X3310311D1*
X3381159D2*
X3742375D1*
X3813222D2*
X4366096D1*
X4455136D2*
X4930196D1*
X80478Y1496937D2*
X193034D1*
X287942D2*
X1952094D1*
X2022942D2*
X2177178D1*
X2275298D2*
X3182312D1*
X3253160D2*
X3310311D1*
X3381159D2*
X3742375D1*
X3813222D2*
X4384665D1*
X4455513D2*
X4949322D1*
X80478Y1472068D2*
X205055D1*
X275903D2*
X1952094D1*
X2022942D2*
X2152311D1*
X2250430D2*
X3182312D1*
X3253160D2*
X3310311D1*
X3381159D2*
X3742375D1*
X3814927D2*
X4384665D1*
X4455513D2*
X5157808D1*
X80478Y1447199D2*
X205055D1*
X275903D2*
X1952094D1*
X2022942D2*
X2127442D1*
X2225563D2*
X3182312D1*
X3253160D2*
X3310311D1*
X3381159D2*
X3743917D1*
X3814765D2*
X4384665D1*
X4455513D2*
X5157773D1*
X282021Y1422331D2*
X1952094D1*
X2022942D2*
X2108281D1*
X2200694D2*
X3182312D1*
X3253160D2*
X3310311D1*
X3381159D2*
X3733512D1*
X3824131D2*
X4384665D1*
X4455513D2*
X5157736D1*
X284802Y1397462D2*
X1952094D1*
X2022942D2*
X2106953D1*
X2177801D2*
X3182312D1*
X3253160D2*
X3310311D1*
X3381159D2*
X3731143D1*
X3826500D2*
X4384665D1*
X4455513D2*
X5157719D1*
X284766Y1372593D2*
X1952094D1*
X2022942D2*
X2106953D1*
X2177801D2*
X3182312D1*
X3253160D2*
X3310311D1*
X3381159D2*
X3744528D1*
X3813133D2*
X4384665D1*
X4455513D2*
X5157682D1*
X284730Y1347724D2*
X1952094D1*
X2022942D2*
X2106953D1*
X2177801D2*
X3182312D1*
X3253160D2*
X3310311D1*
X3381159D2*
X4384665D1*
X4455513D2*
X4856866D1*
X4902199D2*
X5157647D1*
X284694Y1322856D2*
X1952094D1*
X2022942D2*
X2106953D1*
X2177801D2*
X3182312D1*
X3253160D2*
X3310311D1*
X3381159D2*
X4384665D1*
X4455513D2*
X4796545D1*
X4924932D2*
X5157629D1*
X284659Y1297987D2*
X1952094D1*
X2022942D2*
X2106953D1*
X2177801D2*
X3182312D1*
X3253160D2*
X3300982D1*
X3390507D2*
X4384665D1*
X4455513D2*
X4771677D1*
X4927175D2*
X5157593D1*
X284622Y1273118D2*
X1952094D1*
X2022942D2*
X2106953D1*
X2177801D2*
X3182312D1*
X3253160D2*
X3297841D1*
X3393647D2*
X4384665D1*
X4455513D2*
X4746810D1*
X4913610D2*
X5157558D1*
X284587Y1248249D2*
X1952094D1*
X2022942D2*
X2106953D1*
X2177801D2*
X3173161D1*
X3262310D2*
X3310096D1*
X3381392D2*
X4384665D1*
X4455513D2*
X4721941D1*
X4820060D2*
X5157539D1*
X284551Y1223381D2*
X1952094D1*
X2022942D2*
X2106953D1*
X2177801D2*
X3169770D1*
X3265701D2*
X4384665D1*
X4455513D2*
X4697073D1*
X4795193D2*
X4910782D1*
X5124304D2*
X5157504D1*
X284514Y1198512D2*
X1952094D1*
X2022942D2*
X2106953D1*
X2177801D2*
X3181667D1*
X3253806D2*
X4384665D1*
X4455513D2*
X4684047D1*
X4770325D2*
X4910818D1*
X284479Y1173643D2*
X1952094D1*
X2022942D2*
X2106953D1*
X2177801D2*
X4384665D1*
X4455513D2*
X4683993D1*
X4754841D2*
X4910853D1*
X284444Y1148774D2*
X1952094D1*
X2022942D2*
X2106953D1*
X2177801D2*
X4384665D1*
X4455513D2*
X4683993D1*
X4754841D2*
X4910890D1*
X284407Y1123906D2*
X1952094D1*
X2022942D2*
X2106953D1*
X2177801D2*
X4384665D1*
X4455513D2*
X4683993D1*
X4754841D2*
X4910925D1*
X284371Y1099037D2*
X1952094D1*
X2022942D2*
X2106953D1*
X2177801D2*
X4384665D1*
X4455513D2*
X4683455D1*
X4755362D2*
X4910962D1*
X284336Y1074168D2*
X1574055D1*
X1635806D2*
X1952094D1*
X2022942D2*
X2106953D1*
X2177801D2*
X4384665D1*
X4455513D2*
X4671470D1*
X4767365D2*
X4910997D1*
X284299Y1049299D2*
X1548344D1*
X1661499D2*
X1952094D1*
X2022942D2*
X2106953D1*
X2177801D2*
X4384665D1*
X4455513D2*
X4674790D1*
X4764046D2*
X4911033D1*
X284264Y1024430D2*
X1540736D1*
X1669125D2*
X1952094D1*
X2022942D2*
X2106953D1*
X2177801D2*
X4384665D1*
X4455513D2*
X4701182D1*
X4737652D2*
X4911070D1*
X284228Y999562D2*
X796085D1*
X848542D2*
X988245D1*
X1040631D2*
X1543678D1*
X1666181D2*
X1952094D1*
X2022942D2*
X2106953D1*
X2177801D2*
X4366615D1*
X4455209D2*
X4911105D1*
X284192Y974693D2*
X770177D1*
X874433D2*
X962319D1*
X1066556D2*
X1559307D1*
X1650554D2*
X1952094D1*
X2022942D2*
X2106953D1*
X2177801D2*
X4341748D1*
X4439867D2*
X4911140D1*
X284156Y949824D2*
X763898D1*
X880731D2*
X956021D1*
X1072854D2*
X1548648D1*
X1661211D2*
X1952094D1*
X2022942D2*
X2106953D1*
X2177801D2*
X4316881D1*
X4415000D2*
X4911177D1*
X284121Y924955D2*
X769281D1*
X875331D2*
X961404D1*
X1067472D2*
X1540773D1*
X1669071D2*
X1952094D1*
X2022942D2*
X2106953D1*
X2177801D2*
X3910995D1*
X3928357D2*
X4292013D1*
X4390133D2*
X4911213D1*
X284084Y900087D2*
X792570D1*
X852059D2*
X984657D1*
X1044201D2*
X1543500D1*
X1675458D2*
X1952094D1*
X2022942D2*
X2106953D1*
X2177801D2*
X3876151D1*
X4365265D2*
X4911248D1*
X284049Y875218D2*
X1540503D1*
X1700325D2*
X1952094D1*
X2022942D2*
X2106953D1*
X2177801D2*
X3871450D1*
X4340396D2*
X4911285D1*
X284013Y850349D2*
X1540503D1*
X1725193D2*
X1952094D1*
X2022942D2*
X2106953D1*
X2177801D2*
X3881659D1*
X4313466D2*
X4911320D1*
X283976Y825480D2*
X1540503D1*
X1750060D2*
X1952094D1*
X2022942D2*
X2106953D1*
X2177801D2*
X4911374D1*
X283941Y800612D2*
X1540503D1*
X1774929D2*
X1952094D1*
X2022942D2*
X2106953D1*
X2177801D2*
X4911409D1*
X283906Y775743D2*
X1540503D1*
X1669340D2*
X1701677D1*
X1799797D2*
X1952094D1*
X2022942D2*
X2106953D1*
X2177801D2*
X4911446D1*
X283869Y750874D2*
X1726545D1*
X1824664D2*
X1952094D1*
X2022942D2*
X2106953D1*
X2177801D2*
X4911482D1*
X283833Y726005D2*
X1751412D1*
X1849531D2*
X1952094D1*
X2022942D2*
X2106953D1*
X2177801D2*
X4911517D1*
X283798Y701136D2*
X1776281D1*
X1874400D2*
X1952094D1*
X2022942D2*
X2106953D1*
X2177801D2*
X3321167D1*
X3389000D2*
X4911554D1*
X283761Y676268D2*
X1801148D1*
X1899268D2*
X1952094D1*
X2022942D2*
X2106953D1*
X2177801D2*
X3307476D1*
X3402689D2*
X3851552D1*
X4053521D2*
X4911589D1*
X283726Y651399D2*
X1770161D1*
X2022942D2*
X2106953D1*
X2177801D2*
X3309630D1*
X3400537D2*
X3840320D1*
X4064770D2*
X4846782D1*
X4888385D2*
X4911625D1*
X283689Y626530D2*
X1757029D1*
X2022942D2*
X2106953D1*
X2177801D2*
X3332129D1*
X3378037D2*
X3840482D1*
X4064591D2*
X4822525D1*
X288623Y601661D2*
X1757029D1*
X2022942D2*
X2106953D1*
X2177801D2*
X3322673D1*
X3382272D2*
X3852198D1*
X4089315D2*
X4692427D1*
X4746373D2*
X4784757D1*
X284444Y576793D2*
X1757029D1*
X2022942D2*
X2106953D1*
X2177801D2*
X3305664D1*
X3399281D2*
X3851965D1*
X4114182D2*
X4673156D1*
X283581Y551924D2*
X1757495D1*
X2022942D2*
X2106953D1*
X2177801D2*
X3305879D1*
X3399066D2*
X3840428D1*
X4139051D2*
X4659467D1*
X283546Y527055D2*
X1952094D1*
X2022942D2*
X2106953D1*
X2177801D2*
X3323732D1*
X3381231D2*
X3840374D1*
X4163919D2*
X4634600D1*
X4750732D2*
X4785833D1*
X283510Y502186D2*
X1952094D1*
X2022942D2*
X2106953D1*
X2177801D2*
X3851786D1*
X4707850D2*
X4785833D1*
X291692Y477318D2*
X1952094D1*
X2022942D2*
X2106953D1*
X2177801D2*
X3852378D1*
X4682983D2*
X4762777D1*
X316559Y452449D2*
X1952094D1*
X2022942D2*
X2106953D1*
X2177801D2*
X3840535D1*
X341428Y427580D2*
X1952094D1*
X2022942D2*
X2106953D1*
X2177801D2*
X3840266D1*
X4893319D2*
X4911966D1*
X366295Y402711D2*
X1781268D1*
X1879495D2*
X1937274D1*
X2035501D2*
X2093264D1*
X2191508D2*
X2249270D1*
X2347497D2*
X3851391D1*
X4065972D2*
X4770331D1*
X4868450D2*
X4912001D1*
X391163Y377843D2*
X1756150D1*
X2372615D2*
X4745463D1*
X4843583D2*
X4912038D1*
X416030Y352974D2*
X1744936D1*
X2383829D2*
X4704125D1*
X4818715D2*
X4932815D1*
X5066944D2*
X5170888D1*
X456257Y328105D2*
X1741993D1*
X2386772D2*
X4684227D1*
X4793848D2*
X4911302D1*
X5088457D2*
X5170907D1*
X478182Y303236D2*
X1746407D1*
X2382358D2*
X4683060D1*
X4777538D2*
X4900375D1*
X5099402D2*
X5170924D1*
X480138Y278367D2*
X1759612D1*
X1901151D2*
X1915618D1*
X2057157D2*
X2071608D1*
X2213164D2*
X2227614D1*
X2369154D2*
X4698383D1*
X4762234D2*
X4896500D1*
X5103259D2*
X5170942D1*
X376486Y253499D2*
X399063D1*
X466125D2*
X1789827D1*
X1870937D2*
X1945833D1*
X2026944D2*
X2101822D1*
X2182932D2*
X2257828D1*
X2338938D2*
X4898869D1*
X5100891D2*
X5170961D1*
X367390Y228630D2*
X4907965D1*
X5091812D2*
X5170978D1*
X349052Y203761D2*
X4926302D1*
X5073457D2*
X5171014D1*
X307463Y178892D2*
X4505273D1*
X5038991D2*
X5058804D1*
X283008Y154024D2*
X4487151D1*
X282972Y129155D2*
X4480406D1*
X282936Y104286D2*
X4000669D1*
X4095147D2*
X4145497D1*
X4358537D2*
X4477749D1*
X282900Y79417D2*
X3990711D1*
X4105176D2*
X4128434D1*
X4359702D2*
X4480782D1*
X282865Y54549D2*
X3990227D1*
X4105660D2*
X4134337D1*
X4359702D2*
X4488264D1*
X2114462Y1430521D2*
X2110735Y1422148D1*
X2109462Y1413080D1*
X2109459Y409766D1*
X2104843Y407820D1*
X2096840Y403392D1*
X2089354Y398139D1*
X2082469Y392118D1*
X2076261Y385402D1*
X2070804Y378062D1*
X2066157Y370184D1*
X2064367Y366537D1*
X2060430Y374123D1*
X2055377Y381747D1*
X2049543Y388790D1*
X2042992Y395173D1*
X2035802Y400824D1*
X2028050Y405678D1*
X2020438Y409421D1*
Y1583320D1*
X2025277Y1588986D1*
X2029764Y1597121D1*
X2032522Y1605995D1*
X2033438Y1615240D1*
X2032474Y1624483D1*
X2029668Y1633341D1*
X2025138Y1641453D1*
X2019067Y1648487D1*
X2011703Y1654155D1*
X2003350Y1658226D1*
X1994349Y1660530D1*
X1985068Y1660976D1*
X1975887Y1659546D1*
X1967182Y1656295D1*
X1959311Y1651360D1*
X1952593Y1644940D1*
X1947304Y1637299D1*
X1943663Y1628751D1*
X1941816Y1619644D1*
X1941841Y1610353D1*
X1943736Y1601256D1*
X1947423Y1592727D1*
X1952751Y1585114D1*
X1954593Y1583098D1*
X1954597Y644979D1*
X1952346Y646509D1*
X1944004Y650514D1*
X1935156Y653231D1*
X1926003Y654598D1*
X1918348Y654690D1*
X1665592Y907448D1*
X1666167Y909978D1*
X1666846Y919207D1*
X1666143Y928436D1*
X1664072Y937455D1*
X1660681Y946067D1*
X1656043Y954076D1*
X1650264Y961304D1*
X1643471Y967591D1*
X1641457Y969130D1*
X1643878Y970992D1*
X1646211Y972976D1*
X1648442Y975075D1*
X1650568Y977281D1*
X1652581Y979589D1*
X1654479Y981995D1*
X1656255Y984491D1*
X1657906Y987071D1*
X1659425Y989730D1*
X1660814Y992461D1*
X1662063Y995257D1*
X1663175Y998113D1*
X1664142Y1001018D1*
X1664966Y1003970D1*
X1665642Y1006957D1*
X1666169Y1009974D1*
X1666547Y1013014D1*
X1666774Y1016070D1*
X1666850Y1019131D1*
X1666774Y1022193D1*
X1666547Y1025248D1*
X1666169Y1028289D1*
X1665642Y1031306D1*
X1664965Y1034293D1*
X1664142Y1037244D1*
X1663173Y1040150D1*
X1662063Y1043005D1*
X1660812Y1045801D1*
X1659424Y1048531D1*
X1657904Y1051192D1*
X1656253Y1053772D1*
X1654478Y1056268D1*
X1652580Y1058673D1*
X1650567Y1060980D1*
X1648441Y1063186D1*
X1646209Y1065285D1*
X1643875Y1067269D1*
X1641448Y1069136D1*
X1638929Y1070882D1*
X1636329Y1072500D1*
X1633651Y1073987D1*
X1630903Y1075341D1*
X1628092Y1076556D1*
X1625223Y1077633D1*
X1622304Y1078564D1*
X1619345Y1079350D1*
X1616349Y1079990D1*
X1613325Y1080480D1*
X1610281Y1080820D1*
X1607223Y1081009D1*
X1604160Y1081047D1*
X1601100Y1080934D1*
X1598047Y1080669D1*
X1595013Y1080253D1*
X1592001Y1079688D1*
X1589022Y1078975D1*
X1586083Y1078115D1*
X1583189Y1077112D1*
X1580348Y1075965D1*
X1577567Y1074680D1*
X1574854Y1073259D1*
X1572214Y1071705D1*
X1569654Y1070024D1*
X1567180Y1068217D1*
X1564798Y1066290D1*
X1562516Y1064248D1*
X1560336Y1062094D1*
X1558266Y1059837D1*
X1556310Y1057479D1*
X1554472Y1055029D1*
X1552760Y1052490D1*
X1551173Y1049869D1*
X1549719Y1047172D1*
X1548400Y1044408D1*
X1547219Y1041581D1*
X1546178Y1038699D1*
X1545283Y1035770D1*
X1544533Y1032801D1*
X1543930Y1029798D1*
X1543478Y1026768D1*
X1543176Y1023719D1*
X1543024Y1020660D1*
Y1017597D1*
X1543176Y1014537D1*
X1543479Y1011490D1*
X1543932Y1008459D1*
X1544534Y1005457D1*
X1545283Y1002486D1*
X1546180Y999556D1*
X1547219Y996676D1*
X1548400Y993849D1*
X1549720Y991084D1*
X1551175Y988388D1*
X1552761Y985768D1*
X1554475Y983230D1*
X1556311Y980778D1*
X1558268Y978420D1*
X1560339Y976163D1*
X1562517Y974010D1*
X1564801Y971969D1*
X1567182Y970042D1*
X1568516Y969041D1*
X1566256Y967495D1*
X1559479Y961192D1*
X1553718Y953949D1*
X1549100Y945928D1*
X1545730Y937308D1*
X1543681Y928282D1*
X1543001Y919052D1*
X1543705Y909824D1*
X1545776Y900804D1*
X1549167Y892193D1*
X1553804Y884184D1*
X1556087Y881052D1*
X1542997D1*
Y757207D1*
X1666843D1*
X1666848Y813072D1*
X1825144Y654769D1*
X1785480Y654770D1*
X1779432Y654060D1*
X1771497Y650693D1*
X1765106Y644908D1*
X1760965Y637348D1*
X1759531Y628848D1*
X1759529Y556848D1*
X1759765Y553364D1*
X1762327Y545133D1*
X1767446Y538198D1*
X1774558Y533325D1*
X1782881Y531054D1*
X1785474Y530925D1*
X1857451Y530923D1*
X1860936Y531159D1*
X1869167Y533720D1*
X1876101Y538840D1*
X1880976Y545959D1*
X1881041Y546108D1*
X1882906Y544383D1*
X1890559Y539178D1*
X1898902Y535173D1*
X1907749Y532457D1*
X1916903Y531089D1*
X1926157Y531100D1*
X1935307Y532491D1*
X1944147Y535230D1*
X1952480Y539256D1*
X1954593Y540537D1*
X1954596Y410247D1*
X1948843Y407822D1*
X1940840Y403392D1*
X1933354Y398139D1*
X1926469Y392119D1*
X1920261Y385402D1*
X1914804Y378063D1*
X1910157Y370185D1*
X1908382Y366566D1*
X1907217Y369000D1*
X1905794Y371718D1*
X1904277Y374383D1*
X1902664Y376993D1*
X1900961Y379543D1*
X1899165Y382031D1*
X1897285Y384453D1*
X1895318Y386807D1*
X1893268Y389088D1*
X1891138Y391295D1*
X1888930Y393425D1*
X1886648Y395475D1*
X1884294Y397441D1*
X1881871Y399323D1*
X1879383Y401117D1*
X1876833Y402820D1*
X1874223Y404433D1*
X1871558Y405950D1*
X1868840Y407371D1*
X1866073Y408696D1*
X1863261Y409919D1*
X1860407Y411042D1*
X1857514Y412062D1*
X1854587Y412979D1*
X1851629Y413790D1*
X1848643Y414495D1*
X1845635Y415093D1*
X1842608Y415584D1*
X1839564Y415966D1*
X1836509Y416239D1*
X1833446Y416403D1*
X1830379Y416458D1*
X1827312Y416403D1*
X1824249Y416239D1*
X1821194Y415965D1*
X1818151Y415583D1*
X1815123Y415092D1*
X1812115Y414493D1*
X1809130Y413787D1*
X1806172Y412975D1*
X1803245Y412059D1*
X1800353Y411038D1*
X1797499Y409915D1*
X1794686Y408690D1*
X1791920Y407367D1*
X1789202Y405945D1*
X1786537Y404427D1*
X1783927Y402815D1*
X1781377Y401110D1*
X1778888Y399316D1*
X1776467Y397434D1*
X1774113Y395467D1*
X1771832Y393417D1*
X1769625Y391287D1*
X1767495Y389080D1*
X1765445Y386798D1*
X1763479Y384445D1*
X1761597Y382022D1*
X1759803Y379534D1*
X1758100Y376984D1*
X1756487Y374374D1*
X1754970Y371709D1*
X1753549Y368991D1*
X1752224Y366224D1*
X1751000Y363411D1*
X1749878Y360556D1*
X1748857Y357664D1*
X1747941Y354738D1*
X1747130Y351780D1*
X1746425Y348794D1*
X1745827Y345786D1*
X1745336Y342759D1*
X1744954Y339715D1*
X1744681Y336660D1*
X1744517Y333597D1*
X1744462Y330530D1*
X1744517Y327463D1*
X1744681Y324400D1*
X1744955Y321345D1*
X1745337Y318302D1*
X1745828Y315274D1*
X1746427Y312266D1*
X1747133Y309281D1*
X1747944Y306323D1*
X1748861Y303396D1*
X1749882Y300504D1*
X1751005Y297650D1*
X1752230Y294837D1*
X1753552Y292070D1*
X1754975Y289352D1*
X1756493Y286686D1*
X1758105Y284077D1*
X1759810Y281528D1*
X1761604Y279039D1*
X1763486Y276617D1*
X1765453Y274264D1*
X1767503Y271982D1*
X1769633Y269776D1*
X1771840Y267646D1*
X1774122Y265596D1*
X1776475Y263629D1*
X1778898Y261748D1*
X1781386Y259954D1*
X1783936Y258249D1*
X1786546Y256638D1*
X1789211Y255121D1*
X1791929Y253698D1*
X1794696Y252375D1*
X1797508Y251151D1*
X1800362Y250029D1*
X1803256Y249008D1*
X1806182Y248092D1*
X1809140Y247281D1*
X1812126Y246575D1*
X1815134Y245976D1*
X1818161Y245487D1*
X1821205Y245105D1*
X1824260Y244831D1*
X1827323Y244667D1*
X1830390Y244613D1*
X1833457Y244668D1*
X1836520Y244832D1*
X1839575Y245105D1*
X1842618Y245488D1*
X1845646Y245979D1*
X1848654Y246577D1*
X1851639Y247283D1*
X1854597Y248094D1*
X1857524Y249012D1*
X1860416Y250031D1*
X1863270Y251155D1*
X1866083Y252379D1*
X1868850Y253703D1*
X1871567Y255126D1*
X1874232Y256643D1*
X1876843Y258256D1*
X1879392Y259959D1*
X1881881Y261753D1*
X1884302Y263635D1*
X1886656Y265602D1*
X1888937Y267652D1*
X1891144Y269782D1*
X1893274Y271990D1*
X1895324Y274272D1*
X1897291Y276626D1*
X1899172Y279049D1*
X1900966Y281535D1*
X1902671Y284087D1*
X1904282Y286696D1*
X1905799Y289362D1*
X1907220Y292080D1*
X1908454Y294634D1*
X1910125Y290949D1*
X1914764Y283067D1*
X1920215Y275723D1*
X1926416Y269000D1*
X1933297Y262974D1*
X1940780Y257714D1*
X1948778Y253280D1*
X1957202Y249719D1*
X1965958Y247075D1*
X1974945Y245377D1*
X1984062Y244643D1*
X1993205Y244883D1*
X2002269Y246093D1*
X2011155Y248260D1*
X2019760Y251360D1*
X2027987Y255356D1*
X2035743Y260203D1*
X2042938Y265848D1*
X2049493Y272226D1*
X2055335Y279264D1*
X2060394Y286883D1*
X2064454Y294633D1*
X2066125Y290948D1*
X2070764Y283066D1*
X2076215Y275722D1*
X2082416Y268999D1*
X2089297Y262974D1*
X2096780Y257714D1*
X2104778Y253278D1*
X2113202Y249719D1*
X2121958Y247075D1*
X2130945Y245377D1*
X2140062Y244643D1*
X2149205Y244882D1*
X2158269Y246092D1*
X2167155Y248260D1*
X2175760Y251358D1*
X2183987Y255354D1*
X2191743Y260202D1*
X2198938Y265848D1*
X2205493Y272224D1*
X2211335Y279264D1*
X2216394Y286883D1*
X2220454Y294633D1*
X2222125Y290948D1*
X2226764Y283066D1*
X2232215Y275722D1*
X2238416Y268999D1*
X2245297Y262972D1*
X2252780Y257713D1*
X2260778Y253278D1*
X2269202Y249718D1*
X2277958Y247073D1*
X2286945Y245375D1*
X2296062Y244642D1*
X2305205Y244882D1*
X2314269Y246092D1*
X2323155Y248259D1*
X2331760Y251358D1*
X2339987Y255354D1*
X2347743Y260202D1*
X2354938Y265846D1*
X2361493Y272224D1*
X2367335Y279262D1*
X2372394Y286882D1*
X2376614Y294996D1*
X2379948Y303513D1*
X2382358Y312335D1*
X2383816Y321365D1*
X2384307Y330533D1*
X2383824Y339630D1*
X2382373Y348660D1*
X2379971Y357486D1*
X2376643Y366004D1*
X2372430Y374122D1*
X2367377Y381745D1*
X2361543Y388789D1*
X2354992Y395172D1*
X2347802Y400823D1*
X2340050Y405677D1*
X2331827Y409681D1*
X2323224Y412786D1*
X2314341Y414961D1*
X2305276Y416178D1*
X2296134Y416427D1*
X2287016Y415701D1*
X2278028Y414009D1*
X2269270Y411373D1*
X2260843Y407820D1*
X2252840Y403391D1*
X2245354Y398138D1*
X2238469Y392118D1*
X2232261Y385400D1*
X2226804Y378062D1*
X2222157Y370184D1*
X2220455Y366434D1*
X2220367Y366537D1*
X2216430Y374122D1*
X2211377Y381747D1*
X2205543Y388790D1*
X2198992Y395173D1*
X2191802Y400824D1*
X2184050Y405678D1*
X2175827Y409681D1*
X2175314Y409866D1*
X2175307Y439339D1*
X2175314Y1399449D1*
X2356387Y1580524D1*
X2357077Y1580419D1*
X2366356Y1580915D1*
X2375345Y1583268D1*
X2383676Y1587381D1*
X2391009Y1593088D1*
X2397043Y1600155D1*
X2401530Y1608290D1*
X2404289Y1617164D1*
X2405205Y1626409D1*
X2404240Y1635652D1*
X2401434Y1644510D1*
X2396904Y1652622D1*
X2390833Y1659656D1*
X2383470Y1665324D1*
X2375117Y1669395D1*
X2366115Y1671699D1*
X2356835Y1672146D1*
X2347654Y1670715D1*
X2338949Y1667465D1*
X2331077Y1662529D1*
X2324360Y1656109D1*
X2319071Y1648469D1*
X2315429Y1639920D1*
X2313580Y1630836D1*
X2119123Y1436378D1*
X2114462Y1430521D1*
X5037642Y1602089D2*
X5145301D1*
Y1485244D1*
X5028455D1*
Y1502621D1*
X5025958Y1500240D1*
X5023633Y1498255D1*
X5021205Y1496392D1*
X5018684Y1494661D1*
X5016076Y1493064D1*
X5013387Y1491605D1*
X5010626Y1490289D1*
X5007801Y1489119D1*
X5004916Y1488098D1*
X5001984Y1487231D1*
X4999009Y1486518D1*
X4996001Y1485961D1*
X4992970Y1485563D1*
X4989920Y1485324D1*
X4986862Y1485244D1*
X4983804Y1485325D1*
X4980756Y1485566D1*
X4977723Y1485966D1*
X4974717Y1486525D1*
X4971741Y1487239D1*
X4968810Y1488109D1*
X4965927Y1489130D1*
X4963101Y1490302D1*
X4960341Y1491619D1*
X4957654Y1493079D1*
X4955046Y1494678D1*
X4952525Y1496411D1*
X4950100Y1498274D1*
X4947774Y1500261D1*
X4945556Y1502367D1*
X4943451Y1504587D1*
X4941466Y1506912D1*
X4939604Y1509340D1*
X4937873Y1511861D1*
X4936274Y1514470D1*
X4934816Y1517157D1*
X4933500Y1519919D1*
X4932331Y1522745D1*
X4931310Y1525629D1*
X4930442Y1528562D1*
X4929728Y1531535D1*
X4929172Y1534543D1*
X4928774Y1537576D1*
X4928534Y1540625D1*
X4928455Y1543682D1*
X4928537Y1546740D1*
X4928777Y1549789D1*
X4929177Y1552822D1*
X4929735Y1555829D1*
X4930450Y1558803D1*
X4931320Y1561735D1*
X4932341Y1564618D1*
X4933513Y1567444D1*
X4934831Y1570205D1*
X4936290Y1572891D1*
X4937890Y1575499D1*
X4939622Y1578020D1*
X4941486Y1580445D1*
X4943472Y1582770D1*
X4945577Y1584990D1*
X4947798Y1587093D1*
X4950123Y1589080D1*
X4952551Y1590941D1*
X4955072Y1592673D1*
X4957680Y1594270D1*
X4960369Y1595728D1*
X4963130Y1597045D1*
X4965955Y1598215D1*
X4968840Y1599235D1*
X4971772Y1600102D1*
X4974747Y1600816D1*
X4977755Y1601373D1*
X4980786Y1601770D1*
X4983836Y1602010D1*
X4986894Y1602089D1*
X4989951Y1602008D1*
X4993000Y1601768D1*
X4996033Y1601367D1*
X4999039Y1600810D1*
X5002014Y1600094D1*
X5004946Y1599226D1*
X5007829Y1598203D1*
X5010655Y1597033D1*
X5013415Y1595715D1*
X5016102Y1594255D1*
X5018710Y1592656D1*
X5021231Y1590923D1*
X5023656Y1589060D1*
X5025982Y1587073D1*
X5028457Y1584696D1*
X5028455Y1602089D1*
X5037642D1*
X641130Y1898832D2*
X640916Y1895772D1*
X640559Y1892724D1*
X640063Y1889697D1*
X639425Y1886696D1*
X638648Y1883728D1*
X637735Y1880799D1*
X636685Y1877916D1*
X635504Y1875085D1*
X634192Y1872312D1*
X632751Y1869604D1*
X631186Y1866965D1*
X629501Y1864402D1*
X627698Y1861919D1*
X625781Y1859524D1*
X623756Y1857219D1*
X621625Y1855012D1*
X619394Y1852907D1*
X617067Y1850907D1*
X614648Y1849018D1*
X612146Y1847244D1*
X609564Y1845588D1*
X606907Y1844054D1*
X604182Y1842644D1*
X601394Y1841364D1*
X598550Y1840215D1*
X595655Y1839198D1*
X592717Y1838319D1*
X589739Y1837576D1*
X586731Y1836972D1*
X583698Y1836510D1*
X580647Y1836189D1*
X577584Y1836010D1*
X574517Y1835975D1*
X571451Y1836081D1*
X568394Y1836331D1*
X565350Y1836722D1*
X562329Y1837255D1*
X559336Y1837927D1*
X556377Y1838738D1*
X553459Y1839686D1*
X550588Y1840768D1*
X547772Y1841983D1*
X545014Y1843328D1*
X542322Y1844799D1*
X539701Y1846394D1*
X537157Y1848110D1*
X534697Y1849941D1*
X532324Y1851886D1*
X530043Y1853938D1*
X527861Y1856094D1*
X525782Y1858350D1*
X523810Y1860701D1*
X521949Y1863139D1*
X520203Y1865663D1*
X518577Y1868264D1*
X517075Y1870938D1*
X515698Y1873680D1*
X514449Y1876483D1*
X513333Y1879340D1*
X512350Y1882247D1*
X511505Y1885196D1*
X510798Y1888181D1*
X510230Y1891196D1*
X509802Y1894234D1*
X509517Y1897289D1*
X509374Y1900353D1*
X509373Y1903421D1*
X509516Y1906486D1*
X509801Y1909539D1*
X510227Y1912577D1*
X510795Y1915593D1*
X511501Y1918579D1*
X512348Y1921528D1*
X513329Y1924434D1*
X514445Y1927291D1*
X515693Y1930094D1*
X517070Y1932836D1*
X518572Y1935510D1*
X520197Y1938113D1*
X521942Y1940636D1*
X523802Y1943076D1*
X525774Y1945427D1*
X527853Y1947682D1*
X530034Y1949839D1*
X532315Y1951892D1*
X534688Y1953837D1*
X537148Y1955669D1*
X539692Y1957385D1*
X542311Y1958980D1*
X545003Y1960453D1*
X547760Y1961798D1*
X550577Y1963013D1*
X553448Y1964096D1*
X556365Y1965045D1*
X559324Y1965856D1*
X562318Y1966529D1*
X565339Y1967062D1*
X568381Y1967454D1*
X571438Y1967703D1*
X574505Y1967811D1*
X577572Y1967776D1*
X580635Y1967597D1*
X583686Y1967277D1*
X586719Y1966815D1*
X589727Y1966213D1*
X592705Y1965470D1*
X595643Y1964591D1*
X598538Y1963575D1*
X601383Y1962427D1*
X604171Y1961146D1*
X606896Y1959738D1*
X609554Y1958203D1*
X612136Y1956549D1*
X614639Y1954774D1*
X617056Y1952886D1*
X619385Y1950887D1*
X621615Y1948782D1*
X623747Y1946575D1*
X625773Y1944272D1*
X627690Y1941877D1*
X629493Y1939395D1*
X631180Y1936832D1*
X632745Y1934193D1*
X634185Y1931484D1*
X635499Y1928711D1*
X636681Y1925881D1*
X637731Y1922997D1*
X638644Y1920070D1*
X639423Y1917101D1*
X640060Y1914101D1*
X640558Y1911073D1*
X640915Y1908026D1*
X641129Y1904966D1*
X641201Y1901892D1*
X641130Y1898832D1*
X3436822Y2455854D2*
X3561480D1*
Y2322009D1*
X3552734D1*
X3555954Y2315552D1*
X3559008Y2306944D1*
X3560860Y2298000D1*
X3561476Y2288932D1*
X3560848Y2279774D1*
X3558983Y2270832D1*
X3555919Y2262228D1*
X3551710Y2254121D1*
X3546438Y2246663D1*
X3540199Y2239991D1*
X3538974Y2238996D1*
X3539930Y2238118D1*
X3542138Y2235986D1*
X3544245Y2233755D1*
X3546248Y2231429D1*
X3548142Y2229014D1*
X3549924Y2226516D1*
X3551588Y2223937D1*
X3553133Y2221286D1*
X3554555Y2218566D1*
X3555850Y2215783D1*
X3557017Y2212945D1*
X3558052Y2210056D1*
X3558954Y2207122D1*
X3559720Y2204151D1*
X3560349Y2201147D1*
X3560840Y2198118D1*
X3561192Y2195068D1*
X3561403Y2192007D1*
X3561474Y2188932D1*
X3561404Y2185870D1*
X3561193Y2182808D1*
X3560843Y2179760D1*
X3560352Y2176731D1*
X3559723Y2173727D1*
X3558958Y2170755D1*
X3558056Y2167822D1*
X3557022Y2164932D1*
X3555856Y2162093D1*
X3554562Y2159311D1*
X3553140Y2156591D1*
X3551596Y2153938D1*
X3549932Y2151360D1*
X3548151Y2148861D1*
X3546257Y2146445D1*
X3544255Y2144119D1*
X3542148Y2141887D1*
X3539941Y2139755D1*
X3539017Y2138941D1*
X3540260Y2137810D1*
X3546490Y2131130D1*
X3551752Y2123665D1*
X3555949Y2115552D1*
X3559001Y2106944D1*
X3560853Y2098000D1*
X3561471Y2088932D1*
X3560841Y2079774D1*
X3558976Y2070832D1*
X3555912Y2062228D1*
X3551705Y2054121D1*
X3546432Y2046663D1*
X3540193Y2039991D1*
X3538967Y2038996D1*
X3540256Y2037810D1*
X3546487Y2031130D1*
X3551748Y2023665D1*
X3555945Y2015552D1*
X3558999Y2006944D1*
X3560850Y1998000D1*
X3561467Y1988932D1*
X3560839Y1979774D1*
X3558974Y1970832D1*
X3555909Y1962228D1*
X3551701Y1954121D1*
X3546429Y1946663D1*
X3540190Y1939991D1*
X3533101Y1934232D1*
X3525294Y1929491D1*
X3516913Y1925858D1*
X3508117Y1923400D1*
X3499067Y1922163D1*
X3489933Y1922168D1*
X3480885Y1923419D1*
X3472092Y1925888D1*
X3463717Y1929533D1*
X3455915Y1934285D1*
X3448833Y1940054D1*
X3442604Y1946734D1*
X3437341Y1954198D1*
X3433146Y1962311D1*
X3430092Y1970920D1*
X3428240Y1979864D1*
X3427622Y1988978D1*
X3428252Y1998089D1*
X3430117Y2007031D1*
X3433181Y2015635D1*
X3437388Y2023743D1*
X3442661Y2031201D1*
X3448900Y2037873D1*
X3450126Y2038867D1*
X3448837Y2040054D1*
X3442608Y2046734D1*
X3437345Y2054198D1*
X3433148Y2062311D1*
X3430094Y2070920D1*
X3428243Y2079864D1*
X3427626Y2088978D1*
X3428255Y2098089D1*
X3430119Y2107031D1*
X3433184Y2115635D1*
X3437392Y2123743D1*
X3442664Y2131201D1*
X3448903Y2137873D1*
X3450129Y2138867D1*
X3448056Y2140799D1*
X3445898Y2142980D1*
X3443843Y2145260D1*
X3441894Y2147630D1*
X3440055Y2150088D1*
X3438332Y2152627D1*
X3436727Y2155243D1*
X3435243Y2157929D1*
X3433883Y2160681D1*
X3432652Y2163492D1*
X3431551Y2166357D1*
X3430583Y2169269D1*
X3429748Y2172223D1*
X3429050Y2175211D1*
X3428491Y2178228D1*
X3428070Y2181268D1*
X3427787Y2184324D1*
X3427647Y2187390D1*
X3427646Y2190459D1*
X3427786Y2193525D1*
X3428067Y2196581D1*
X3428488Y2199621D1*
X3429047Y2202639D1*
X3429744Y2205627D1*
X3430579Y2208581D1*
X3431546Y2211493D1*
X3432647Y2214358D1*
X3433878Y2217169D1*
X3435236Y2219921D1*
X3436719Y2222608D1*
X3438324Y2225224D1*
X3440047Y2227764D1*
X3441885Y2230222D1*
X3443833Y2232593D1*
X3445888Y2234873D1*
X3448046Y2237055D1*
X3450073Y2238927D1*
X3448843Y2240054D1*
X3442613Y2246734D1*
X3437350Y2254198D1*
X3433154Y2262311D1*
X3430101Y2270920D1*
X3428249Y2279864D1*
X3427631Y2288978D1*
X3428261Y2298089D1*
X3430126Y2307031D1*
X3433190Y2315635D1*
X3436497Y2322008D1*
X3427635Y2322009D1*
Y2455854D1*
X3436822D1*
X4900507Y450929D2*
Y577479D1*
X4905345Y583144D1*
X4909832Y591280D1*
X4912591Y600154D1*
X4913507Y609399D1*
X4912542Y618642D1*
X4909736Y627500D1*
X4905206Y635612D1*
X4899135Y642646D1*
X4891772Y648314D1*
X4883419Y652385D1*
X4874417Y654689D1*
X4865136Y655135D1*
X4855955Y653705D1*
X4847251Y650454D1*
X4839379Y645518D1*
X4832661Y639098D1*
X4827373Y631458D1*
X4823731Y622909D1*
X4822239Y616479D1*
X4818803Y616644D1*
X4809622Y615214D1*
X4800917Y611963D1*
X4793046Y607028D1*
X4786328Y600608D1*
X4781039Y592967D1*
X4777398Y584419D1*
X4775551Y575312D1*
X4775576Y566021D1*
X4777471Y556924D1*
X4781157Y548395D1*
X4786486Y540782D1*
X4788328Y538774D1*
X4788327Y500360D1*
X4760261Y472297D1*
X4675454Y472295D1*
X4720252Y517098D1*
X4726476Y517430D1*
X4735466Y519783D1*
X4743797Y523896D1*
X4751130Y529604D1*
X4757164Y536671D1*
X4761651Y544806D1*
X4764409Y553680D1*
X4765325Y562925D1*
X4764361Y572168D1*
X4761555Y581026D1*
X4757025Y589138D1*
X4750954Y596172D1*
X4743591Y601840D1*
X4735238Y605911D1*
X4726236Y608215D1*
X4716955Y608661D1*
X4707774Y607231D1*
X4699070Y603980D1*
X4691198Y599045D1*
X4684480Y592625D1*
X4679192Y584984D1*
X4675550Y576436D1*
X4673703Y567329D1*
X4673480Y563441D1*
X4626206Y516169D1*
X4172307Y516167D1*
X4061927Y626538D1*
X4062772Y630222D1*
X4063463Y639374D1*
X4062793Y648382D1*
X4060777Y657261D1*
X4057461Y665741D1*
X4052917Y673633D1*
X4047249Y680759D1*
X4040581Y686959D1*
X4033064Y692098D1*
X4024865Y696058D1*
X4016167Y698752D1*
X4007165Y700121D1*
X3998059Y700131D1*
X3989054Y698785D1*
X3980350Y696112D1*
X3972142Y692171D1*
X3964613Y687050D1*
X3957930Y680865D1*
X3952513Y674139D1*
X3947249Y680756D1*
X3940581Y686958D1*
X3933064Y692096D1*
X3924865Y696056D1*
X3916167Y698751D1*
X3907165Y700118D1*
X3898059Y700130D1*
X3889054Y698783D1*
X3880350Y696109D1*
X3872142Y692168D1*
X3864613Y687049D1*
X3857930Y680862D1*
X3852244Y673751D1*
X3847682Y665870D1*
X3844345Y657398D1*
X3842308Y648524D1*
X3841618Y639444D1*
X3842287Y630364D1*
X3844303Y621484D1*
X3847619Y613004D1*
X3852163Y605113D1*
X3857832Y597987D1*
X3864499Y591786D1*
X3867749Y589361D1*
X3866115Y588205D1*
X3863709Y586314D1*
X3861399Y584303D1*
X3859193Y582178D1*
X3857097Y579946D1*
X3855115Y577612D1*
X3853255Y575181D1*
X3851517Y572659D1*
X3849909Y570054D1*
X3848434Y567370D1*
X3847096Y564617D1*
X3845898Y561799D1*
X3844843Y558924D1*
X3843933Y556000D1*
X3843172Y553034D1*
X3842560Y550034D1*
X3842100Y547007D1*
X3841793Y543961D1*
X3841639Y540903D1*
Y537841D1*
X3841793Y534782D1*
X3842100Y531736D1*
X3842560Y528709D1*
X3843172Y525709D1*
X3843933Y522743D1*
X3844843Y519819D1*
X3845898Y516945D1*
X3847096Y514127D1*
X3848434Y511373D1*
X3849909Y508690D1*
X3851518Y506084D1*
X3853255Y503562D1*
X3855117Y501131D1*
X3857097Y498797D1*
X3859194Y496564D1*
X3861399Y494441D1*
X3863709Y492430D1*
X3866117Y490538D1*
X3867888Y489273D1*
X3864615Y487049D1*
X3857934Y480862D1*
X3852248Y473751D1*
X3847686Y465870D1*
X3844349Y457398D1*
X3842312Y448524D1*
X3841621Y439444D1*
X3842291Y430364D1*
X3844307Y421484D1*
X3847623Y413004D1*
X3852167Y405113D1*
X3857835Y397987D1*
X3864503Y391786D1*
X3872020Y386647D1*
X3880219Y382688D1*
X3888917Y379993D1*
X3897919Y378625D1*
X3907025Y378614D1*
X3916030Y379961D1*
X3924734Y382634D1*
X3932942Y386575D1*
X3940471Y391696D1*
X3941622Y392634D1*
Y378451D1*
X4063466D1*
X4063459Y406451D1*
X4773900D1*
X4776689Y406572D1*
X4729512Y359400D1*
X4727853Y359480D1*
X4718672Y358050D1*
X4709967Y354799D1*
X4702096Y349864D1*
X4695378Y343444D1*
X4690089Y335803D1*
X4686448Y327255D1*
X4684601Y318148D1*
X4684626Y308857D1*
X4686521Y299760D1*
X4690207Y291231D1*
X4695535Y283618D1*
X4702287Y277235D1*
X4710185Y272341D1*
X4718907Y269136D1*
X4728096Y267753D1*
X4737374Y268249D1*
X4746364Y270602D1*
X4754694Y274715D1*
X4762028Y280423D1*
X4768062Y287490D1*
X4772549Y295625D1*
X4775307Y304499D1*
X4776152Y312920D1*
X4890864Y427627D1*
X4892484Y429369D1*
X4897453Y437060D1*
X4900112Y445831D1*
X4900507Y450929D1*
X3400092Y658521D2*
X3397333Y649647D1*
X3392846Y641512D1*
X3386812Y634445D1*
X3379479Y628738D1*
X3371148Y624625D1*
X3362159Y622272D1*
X3352881Y621776D1*
X3343692Y623159D1*
X3334970Y626364D1*
X3327072Y631257D1*
X3320320Y637640D1*
X3314992Y645253D1*
X3311306Y653782D1*
X3309411Y662879D1*
X3309386Y672171D1*
X3311232Y681277D1*
X3314874Y689825D1*
X3320163Y697466D1*
X3326881Y703886D1*
X3334752Y708822D1*
X3343457Y712072D1*
X3352638Y713503D1*
X3361919Y713056D1*
X3370920Y710752D1*
X3379273Y706681D1*
X3386636Y701013D1*
X3392707Y693979D1*
X3397238Y685867D1*
X3400043Y677009D1*
X3401008Y667646D1*
X3400092Y658521D1*
X3397482Y555613D2*
X3394723Y546739D1*
X3390236Y538604D1*
X3384202Y531537D1*
X3376869Y525829D1*
X3368538Y521717D1*
X3359549Y519364D1*
X3350270Y518867D1*
X3341081Y520251D1*
X3332360Y523455D1*
X3324462Y528349D1*
X3317710Y534732D1*
X3312382Y542345D1*
X3308696Y550874D1*
X3306801Y559971D1*
X3306776Y569262D1*
X3308622Y578369D1*
X3312264Y586917D1*
X3317552Y594558D1*
X3324270Y600978D1*
X3332142Y605913D1*
X3340846Y609164D1*
X3350028Y610594D1*
X3359308Y610148D1*
X3368310Y607844D1*
X3376663Y603773D1*
X3384026Y598105D1*
X3390097Y591071D1*
X3394627Y582959D1*
X3397433Y574101D1*
X3398398Y564738D1*
X3397482Y555613D1*
X5106088Y1834127D2*
X5105873Y1831068D1*
X5105514Y1828021D1*
X5105013Y1824995D1*
X5104371Y1821996D1*
X5103589Y1819030D1*
X5102669Y1816104D1*
X5101613Y1813224D1*
X5100423Y1810398D1*
X5099101Y1807629D1*
X5097652Y1804927D1*
X5096077Y1802294D1*
X5094381Y1799739D1*
X5092566Y1797265D1*
X5090638Y1794879D1*
X5088600Y1792587D1*
X5086457Y1790392D1*
X5084213Y1788302D1*
X5081874Y1786318D1*
X5079444Y1784445D1*
X5076929Y1782689D1*
X5074335Y1781052D1*
X5071667Y1779539D1*
X5068930Y1778152D1*
X5066133Y1776896D1*
X5063278Y1775772D1*
X5060375Y1774783D1*
X5057428Y1773932D1*
X5054445Y1773218D1*
X5051432Y1772646D1*
X5048395Y1772215D1*
X5045341Y1771928D1*
X5042277Y1771785D1*
X5039210Y1771783D1*
X5036146Y1771928D1*
X5033092Y1772214D1*
X5030054Y1772644D1*
X5027041Y1773217D1*
X5024058Y1773928D1*
X5021110Y1774780D1*
X5018207Y1775768D1*
X5015353Y1776892D1*
X5012554Y1778148D1*
X5009818Y1779534D1*
X5007150Y1781046D1*
X5004555Y1782682D1*
X5002039Y1784438D1*
X4999610Y1786310D1*
X4997270Y1788294D1*
X4995026Y1790385D1*
X4992883Y1792579D1*
X4990844Y1794871D1*
X4988916Y1797256D1*
X4987101Y1799730D1*
X4985404Y1802285D1*
X4983829Y1804916D1*
X4982379Y1807619D1*
X4981056Y1810387D1*
X4979866Y1813214D1*
X4978810Y1816093D1*
X4977888Y1819020D1*
X4977106Y1821986D1*
X4976463Y1824984D1*
X4975962Y1828010D1*
X4975604Y1831056D1*
X4975387Y1834117D1*
X4975315Y1837184D1*
X4975387Y1840249D1*
X4975602Y1843310D1*
X4975961Y1846356D1*
X4976462Y1849382D1*
X4977104Y1852382D1*
X4977886Y1855348D1*
X4978806Y1858273D1*
X4979862Y1861154D1*
X4981052Y1863980D1*
X4982374Y1866748D1*
X4983823Y1869451D1*
X4985398Y1872084D1*
X4987094Y1874639D1*
X4988909Y1877113D1*
X4990837Y1879497D1*
X4992875Y1881790D1*
X4995018Y1883984D1*
X4997262Y1886076D1*
X4999601Y1888060D1*
X5002031Y1889932D1*
X5004546Y1891689D1*
X5007140Y1893325D1*
X5009808Y1894839D1*
X5012545Y1896224D1*
X5015343Y1897482D1*
X5018197Y1898605D1*
X5021100Y1899594D1*
X5024047Y1900446D1*
X5027030Y1901159D1*
X5030043Y1901731D1*
X5033080Y1902161D1*
X5036134Y1902449D1*
X5039198Y1902593D1*
X5042265D1*
X5045329Y1902450D1*
X5048383Y1902163D1*
X5051421Y1901734D1*
X5054434Y1901161D1*
X5057417Y1900449D1*
X5060365Y1899597D1*
X5063268Y1898609D1*
X5066122Y1897486D1*
X5068921Y1896230D1*
X5071657Y1894844D1*
X5074325Y1893331D1*
X5076920Y1891694D1*
X5079436Y1889938D1*
X5081865Y1888067D1*
X5084205Y1886084D1*
X5086449Y1883992D1*
X5088592Y1881798D1*
X5090631Y1879507D1*
X5092559Y1877121D1*
X5094374Y1874648D1*
X5096071Y1872093D1*
X5097646Y1869461D1*
X5099096Y1866759D1*
X5100419Y1863990D1*
X5101609Y1861163D1*
X5102665Y1858283D1*
X5103587Y1855358D1*
X5104369Y1852392D1*
X5105012Y1849392D1*
X5105513Y1846366D1*
X5105871Y1843320D1*
X5106088Y1840261D1*
X5106160Y1837189D1*
X5106088Y1834127D1*
X4908665Y1828025D2*
X4906761Y1819098D1*
X4903633Y1810525D1*
X4899341Y1802469D1*
X4893970Y1795089D1*
X4887625Y1788529D1*
X4880428Y1782915D1*
X4872520Y1778357D1*
X4864055Y1774945D1*
X4855197Y1772744D1*
X4846118Y1771797D1*
X4836997Y1772123D1*
X4828010Y1773715D1*
X4819332Y1776542D1*
X4811131Y1780550D1*
X4803568Y1785660D1*
X4796790Y1791773D1*
X4790929Y1798769D1*
X4786098Y1806513D1*
X4782392Y1814854D1*
X4779883Y1823630D1*
X4778621Y1832669D1*
X4778627Y1841797D1*
X4779906Y1850835D1*
X4782428Y1859606D1*
X4786147Y1867941D1*
X4790990Y1875677D1*
X4796862Y1882665D1*
X4803650Y1888766D1*
X4811220Y1893865D1*
X4819428Y1897860D1*
X4828110Y1900673D1*
X4837100Y1902251D1*
X4846222Y1902562D1*
X4855298Y1901601D1*
X4864154Y1899386D1*
X4872613Y1895961D1*
X4880513Y1891390D1*
X4887702Y1885765D1*
X4894037Y1879194D1*
X4899396Y1871806D1*
X4903675Y1863744D1*
X4906790Y1855164D1*
X4908680Y1846235D1*
X4909310Y1837181D1*
X4908665Y1828025D1*
X5027302Y2168142D2*
X5045755D1*
X5043123Y2170327D1*
X5040891Y2172412D1*
X5038776Y2174617D1*
X5036783Y2176933D1*
X5034921Y2179356D1*
X5033194Y2181875D1*
X5031608Y2184486D1*
X5030165Y2187178D1*
X5028873Y2189946D1*
X5027732Y2192781D1*
X5026749Y2195673D1*
X5025925Y2198615D1*
X5025264Y2201598D1*
X5024765Y2204612D1*
X5024432Y2207648D1*
X5024266Y2210699D1*
Y2213755D1*
X5024433Y2216804D1*
X5024766Y2219841D1*
X5025266Y2222856D1*
X5025929Y2225837D1*
X5026753Y2228780D1*
X5027738Y2231672D1*
X5028878Y2234507D1*
X5030171Y2237273D1*
X5031614Y2239966D1*
X5033202Y2242576D1*
X5034929Y2245096D1*
X5036793Y2247517D1*
X5038785Y2249833D1*
X5040900Y2252037D1*
X5043134Y2254122D1*
X5045476Y2256083D1*
X5047924Y2257911D1*
X5050467Y2259604D1*
X5053098Y2261155D1*
X5055142Y2262213D1*
X5053093Y2263290D1*
X5050462Y2264843D1*
X5047919Y2266535D1*
X5045472Y2268365D1*
X5043130Y2270325D1*
X5040898Y2272411D1*
X5038782Y2274615D1*
X5036790Y2276932D1*
X5034928Y2279354D1*
X5033201Y2281874D1*
X5031614Y2284484D1*
X5030172Y2287177D1*
X5028878Y2289945D1*
X5027739Y2292780D1*
X5026756Y2295672D1*
X5025932Y2298614D1*
X5025269Y2301597D1*
X5024772Y2304610D1*
X5024438Y2307647D1*
X5024272Y2310698D1*
X5024273Y2313753D1*
X5024440Y2316803D1*
X5024773Y2319840D1*
X5025272Y2322854D1*
X5025934Y2325836D1*
X5026760Y2328778D1*
X5027744Y2331671D1*
X5028885Y2334505D1*
X5030177Y2337272D1*
X5031621Y2339965D1*
X5033207Y2342575D1*
X5034936Y2345094D1*
X5036798Y2347516D1*
X5038791Y2349832D1*
X5040907Y2352035D1*
X5043139Y2354121D1*
X5045483Y2356081D1*
X5047930Y2357909D1*
X5050474Y2359602D1*
X5053105Y2361154D1*
X5055148Y2362211D1*
X5053100Y2363290D1*
X5050469Y2364843D1*
X5047925Y2366535D1*
X5045479Y2368365D1*
X5043136Y2370325D1*
X5040903Y2372411D1*
X5038789Y2374615D1*
X5036797Y2376932D1*
X5034934Y2379354D1*
X5033207Y2381874D1*
X5031619Y2384484D1*
X5030177Y2387177D1*
X5028885Y2389945D1*
X5027745Y2392780D1*
X5026762Y2395672D1*
X5025938Y2398614D1*
X5025276Y2401597D1*
X5024778Y2404610D1*
X5024445Y2407647D1*
X5024278Y2410698D1*
X5024280Y2413753D1*
X5024446Y2416803D1*
X5024780Y2419840D1*
X5025278Y2422854D1*
X5025941Y2425836D1*
X5026766Y2428778D1*
X5027749Y2431671D1*
X5028890Y2434505D1*
X5030184Y2437272D1*
X5031626Y2439965D1*
X5033214Y2442575D1*
X5034942Y2445094D1*
X5036804Y2447516D1*
X5038797Y2449832D1*
X5040913Y2452035D1*
X5043146Y2454121D1*
X5045490Y2456081D1*
X5047937Y2457909D1*
X5050480Y2459602D1*
X5053112Y2461154D1*
X5055154Y2462211D1*
X5053106Y2463291D1*
X5050475Y2464844D1*
X5047932Y2466537D1*
X5045486Y2468366D1*
X5043142Y2470327D1*
X5040909Y2472412D1*
X5038794Y2474617D1*
X5036803Y2476933D1*
X5034941Y2479356D1*
X5033214Y2481875D1*
X5031626Y2484486D1*
X5030184Y2487178D1*
X5028891Y2489946D1*
X5027752Y2492781D1*
X5026768Y2495673D1*
X5025945Y2498615D1*
X5025282Y2501598D1*
X5024785Y2504612D1*
X5024451Y2507648D1*
X5024285Y2510699D1*
Y2513755D1*
X5024453Y2516804D1*
X5024786Y2519841D1*
X5025285Y2522856D1*
X5025948Y2525837D1*
X5026772Y2528780D1*
X5027756Y2531672D1*
X5028896Y2534507D1*
X5030190Y2537273D1*
X5031633Y2539966D1*
X5033220Y2542576D1*
X5034949Y2545096D1*
X5036811Y2547517D1*
X5038803Y2549833D1*
X5040919Y2552037D1*
X5043152Y2554122D1*
X5045496Y2556083D1*
X5047942Y2557911D1*
X5050486Y2559604D1*
X5053118Y2561155D1*
X5055160Y2562213D1*
X5053113Y2563290D1*
X5050480Y2564843D1*
X5047938Y2566535D1*
X5045492Y2568365D1*
X5043148Y2570325D1*
X5040916Y2572411D1*
X5038801Y2574615D1*
X5036810Y2576932D1*
X5034946Y2579354D1*
X5033219Y2581874D1*
X5031633Y2584484D1*
X5030190Y2587177D1*
X5028898Y2589945D1*
X5027757Y2592780D1*
X5026774Y2595672D1*
X5025950Y2598614D1*
X5025289Y2601597D1*
X5024790Y2604610D1*
X5024458Y2607647D1*
X5024291Y2610698D1*
Y2613753D1*
X5024459Y2616803D1*
X5024793Y2619840D1*
X5025291Y2622854D1*
X5025954Y2625836D1*
X5026778Y2628778D1*
X5027762Y2631671D1*
X5028903Y2634504D1*
X5030197Y2637272D1*
X5031639Y2639965D1*
X5033227Y2642575D1*
X5034954Y2645094D1*
X5036818Y2647516D1*
X5038810Y2649832D1*
X5040925Y2652035D1*
X5043159Y2654121D1*
X5045503Y2656081D1*
X5047949Y2657909D1*
X5050492Y2659602D1*
X5053125Y2661154D1*
X5055167Y2662211D1*
X5053119Y2663290D1*
X5050487Y2664843D1*
X5047945Y2666535D1*
X5045497Y2668365D1*
X5043155Y2670325D1*
X5040923Y2672411D1*
X5038807Y2674615D1*
X5036815Y2676932D1*
X5034953Y2679354D1*
X5033226Y2681874D1*
X5031639Y2684484D1*
X5030197Y2687177D1*
X5028904Y2689945D1*
X5027764Y2692780D1*
X5026781Y2695672D1*
X5025957Y2698614D1*
X5025295Y2701597D1*
X5024797Y2704610D1*
X5024465Y2707647D1*
X5024298Y2710698D1*
Y2713753D1*
X5024465Y2716803D1*
X5024799Y2719840D1*
X5025298Y2722854D1*
X5025961Y2725836D1*
X5026785Y2728778D1*
X5027769Y2731671D1*
X5028909Y2734504D1*
X5030203Y2737272D1*
X5031646Y2739965D1*
X5033234Y2742575D1*
X5034961Y2745094D1*
X5036824Y2747516D1*
X5038816Y2749832D1*
X5040932Y2752035D1*
X5043165Y2754121D1*
X5045508Y2756081D1*
X5047955Y2757909D1*
X5050499Y2759602D1*
X5053130Y2761154D1*
X5055844Y2762559D1*
X5058629Y2763814D1*
X5061479Y2764915D1*
X5064385Y2765858D1*
X5067337Y2766642D1*
X5070328Y2767264D1*
X5073349Y2767720D1*
X5076390Y2768012D1*
X5079442Y2768136D1*
X5082497Y2768094D1*
X5085545Y2767886D1*
X5088576Y2767510D1*
X5091584Y2766970D1*
X5094556Y2766266D1*
X5097487Y2765402D1*
X5100365Y2764379D1*
X5103184Y2763199D1*
X5105933Y2761869D1*
X5108606Y2760390D1*
X5111194Y2758766D1*
X5113690Y2757004D1*
X5116085Y2755108D1*
X5118374Y2753084D1*
X5120549Y2750938D1*
X5122604Y2748677D1*
X5124531Y2746307D1*
X5126327Y2743836D1*
X5127984Y2741269D1*
X5129499Y2738617D1*
X5130867Y2735885D1*
X5132084Y2733083D1*
X5133146Y2730218D1*
X5134050Y2727301D1*
X5134793Y2724337D1*
X5135374Y2721337D1*
X5135789Y2718311D1*
X5136039Y2715266D1*
X5136122Y2712219D1*
X5136038Y2709159D1*
X5135787Y2706114D1*
X5135371Y2703087D1*
X5134790Y2700088D1*
X5134046Y2697125D1*
X5133142Y2694206D1*
X5132079Y2691343D1*
X5130861Y2688541D1*
X5129493Y2685810D1*
X5127978Y2683156D1*
X5126319Y2680591D1*
X5124522Y2678119D1*
X5122594Y2675751D1*
X5120539Y2673490D1*
X5118365Y2671344D1*
X5116075Y2669322D1*
X5113680Y2667425D1*
X5111184Y2665664D1*
X5108594Y2664042D1*
X5105921Y2662563D1*
X5105226Y2662227D1*
X5105927Y2661869D1*
X5108600Y2660390D1*
X5111188Y2658766D1*
X5113684Y2657004D1*
X5116079Y2655108D1*
X5118367Y2653084D1*
X5120542Y2650938D1*
X5122597Y2648677D1*
X5124525Y2646307D1*
X5126320Y2643836D1*
X5127978Y2641269D1*
X5129493Y2638617D1*
X5130861Y2635885D1*
X5132077Y2633083D1*
X5133139Y2630218D1*
X5134043Y2627301D1*
X5134787Y2624337D1*
X5135367Y2621337D1*
X5135782Y2618311D1*
X5136033Y2615266D1*
X5136115Y2612219D1*
X5136031Y2609159D1*
X5135781Y2606114D1*
X5135365Y2603087D1*
X5134783Y2600088D1*
X5134039Y2597125D1*
X5133135Y2594206D1*
X5132072Y2591343D1*
X5130856Y2588541D1*
X5129487Y2585810D1*
X5127971Y2583156D1*
X5126312Y2580591D1*
X5124517Y2578119D1*
X5122588Y2575751D1*
X5120533Y2573490D1*
X5118358Y2571344D1*
X5116070Y2569322D1*
X5113673Y2567425D1*
X5111177Y2565664D1*
X5108588Y2564042D1*
X5105915Y2562563D1*
X5105219Y2562227D1*
X5105921Y2561870D1*
X5108593Y2560391D1*
X5111181Y2558768D1*
X5113677Y2557005D1*
X5116073Y2555109D1*
X5118362Y2553085D1*
X5120537Y2550940D1*
X5122591Y2548678D1*
X5124518Y2546308D1*
X5126314Y2543837D1*
X5127971Y2541270D1*
X5129487Y2538618D1*
X5130854Y2535886D1*
X5132071Y2533084D1*
X5133134Y2530219D1*
X5134037Y2527302D1*
X5134781Y2524339D1*
X5135361Y2521339D1*
X5135777Y2518312D1*
X5136026Y2515268D1*
X5136109Y2512220D1*
X5136025Y2509160D1*
X5135774Y2506115D1*
X5135358Y2503088D1*
X5134777Y2500089D1*
X5134034Y2497126D1*
X5133129Y2494207D1*
X5132067Y2491344D1*
X5130849Y2488542D1*
X5129480Y2485811D1*
X5127965Y2483157D1*
X5126306Y2480592D1*
X5124510Y2478121D1*
X5122581Y2475752D1*
X5120528Y2473491D1*
X5118352Y2471345D1*
X5116063Y2469323D1*
X5113667Y2467427D1*
X5111171Y2465665D1*
X5108581Y2464043D1*
X5105908Y2462564D1*
X5105213Y2462228D1*
X5105915Y2461869D1*
X5108587Y2460390D1*
X5111176Y2458766D1*
X5113671Y2457004D1*
X5116067Y2455108D1*
X5118356Y2453084D1*
X5120530Y2450938D1*
X5122584Y2448677D1*
X5124512Y2446307D1*
X5126307Y2443836D1*
X5127965Y2441269D1*
X5129480Y2438617D1*
X5130848Y2435885D1*
X5132066Y2433083D1*
X5133127Y2430218D1*
X5134031Y2427301D1*
X5134774Y2424337D1*
X5135354Y2421337D1*
X5135770Y2418311D1*
X5136020Y2415266D1*
X5136102Y2412219D1*
X5136018Y2409159D1*
X5135769Y2406114D1*
X5135352Y2403087D1*
X5134772Y2400088D1*
X5134028Y2397125D1*
X5133122Y2394206D1*
X5132060Y2391343D1*
X5130843Y2388541D1*
X5129474Y2385810D1*
X5127958Y2383156D1*
X5126299Y2380591D1*
X5124504Y2378119D1*
X5122576Y2375751D1*
X5120521Y2373490D1*
X5118345Y2371344D1*
X5116056Y2369322D1*
X5113660Y2367425D1*
X5111164Y2365664D1*
X5108576Y2364042D1*
X5105903Y2362563D1*
X5105207Y2362227D1*
X5105908Y2361869D1*
X5108581Y2360390D1*
X5111169Y2358766D1*
X5113664Y2357004D1*
X5116060Y2355108D1*
X5118349Y2353084D1*
X5120524Y2350938D1*
X5122577Y2348677D1*
X5124505Y2346307D1*
X5126301Y2343836D1*
X5127959Y2341269D1*
X5129474Y2338617D1*
X5130843Y2335885D1*
X5132059Y2333083D1*
X5133121Y2330218D1*
X5134025Y2327301D1*
X5134768Y2324337D1*
X5135348Y2321337D1*
X5135764Y2318311D1*
X5136013Y2315266D1*
X5136097Y2312219D1*
X5136013Y2309159D1*
X5135762Y2306114D1*
X5135346Y2303087D1*
X5134765Y2300088D1*
X5134021Y2297125D1*
X5133117Y2294206D1*
X5132054Y2291343D1*
X5130836Y2288541D1*
X5129467Y2285810D1*
X5127951Y2283156D1*
X5126294Y2280591D1*
X5124497Y2278119D1*
X5122570Y2275751D1*
X5120514Y2273490D1*
X5118339Y2271344D1*
X5116050Y2269322D1*
X5113654Y2267425D1*
X5111157Y2265664D1*
X5108570Y2264042D1*
X5105896Y2262563D1*
X5105201Y2262227D1*
X5105902Y2261870D1*
X5108575Y2260391D1*
X5111163Y2258768D1*
X5113659Y2257005D1*
X5116054Y2255109D1*
X5118343Y2253085D1*
X5120517Y2250940D1*
X5122572Y2248678D1*
X5124499Y2246308D1*
X5126295Y2243837D1*
X5127953Y2241270D1*
X5129467Y2238618D1*
X5130836Y2235886D1*
X5132052Y2233084D1*
X5133114Y2230219D1*
X5134018Y2227302D1*
X5134761Y2224339D1*
X5135341Y2221339D1*
X5135757Y2218312D1*
X5136007Y2215268D1*
X5136091Y2212220D1*
X5136007Y2209160D1*
X5135756Y2206115D1*
X5135340Y2203088D1*
X5134759Y2200089D1*
X5134014Y2197126D1*
X5133110Y2194207D1*
X5132047Y2191344D1*
X5130829Y2188542D1*
X5129461Y2185811D1*
X5127945Y2183157D1*
X5126287Y2180592D1*
X5124491Y2178121D1*
X5122563Y2175752D1*
X5120508Y2173491D1*
X5118333Y2171345D1*
X5116043Y2169323D1*
X5114549Y2168139D1*
X5136084Y2168142D1*
Y2056297D1*
X5024239D1*
Y2168142D1*
X5027302D1*
X1536412Y1795052D2*
X1536171Y1794769D1*
X1528837Y1789062D1*
X1520507Y1784949D1*
X1511517Y1782596D1*
X1502239Y1782100D1*
X1493050Y1783483D1*
X1484328Y1786688D1*
X1476430Y1791581D1*
X1472770Y1795041D1*
X1349598Y1795047D1*
X1349303Y1794769D1*
X1341970Y1789062D1*
X1333639Y1784949D1*
X1324650Y1782596D1*
X1315371Y1782100D1*
X1306182Y1783483D1*
X1297461Y1786688D1*
X1289563Y1791581D1*
X1282811Y1797965D1*
X1277483Y1805577D1*
X1273797Y1814106D1*
X1271902Y1823203D1*
X1271877Y1832495D1*
X1273723Y1841601D1*
X1277365Y1850150D1*
X1282654Y1857790D1*
X1289371Y1864210D1*
X1297243Y1869146D1*
X1305948Y1872396D1*
X1315129Y1873827D1*
X1324409Y1873381D1*
X1333411Y1871076D1*
X1341764Y1867005D1*
X1349127Y1861337D1*
X1349513Y1860891D1*
X1472421Y1860892D1*
X1476239Y1864210D1*
X1484110Y1869146D1*
X1492815Y1872396D1*
X1501996Y1873827D1*
X1511277Y1873381D1*
X1520278Y1871076D1*
X1528631Y1867005D1*
X1535995Y1861337D1*
X1536381Y1860891D1*
X2077568Y1860892D1*
X2091118Y1861215D1*
X2173678D1*
X2179386Y1866486D1*
X2187257Y1871421D1*
X2195962Y1874672D1*
X2205143Y1876102D1*
X2214424Y1875656D1*
X2223425Y1873352D1*
X2231778Y1869281D1*
X2239142Y1863613D1*
X2241211Y1861215D1*
X2832319D1*
X2835625Y1864042D1*
X2843496Y1868978D1*
X2852201Y1872228D1*
X2861382Y1873659D1*
X2870663Y1873213D1*
X2879664Y1870908D1*
X2888017Y1866837D1*
X2895381Y1861169D1*
X2901451Y1854135D1*
X2905982Y1846024D1*
X2908787Y1837165D1*
X2909752Y1827802D1*
X2908836Y1818677D1*
X2906077Y1809803D1*
X2901591Y1801668D1*
X2895556Y1794601D1*
X2888223Y1788894D1*
X2879892Y1784781D1*
X2870903Y1782428D1*
X2861625Y1781932D1*
X2852436Y1783315D1*
X2843714Y1786520D1*
X2835816Y1791413D1*
X2831630Y1795373D1*
X2237462Y1795370D1*
X2231984Y1791337D1*
X2223654Y1787224D1*
X2214664Y1784871D1*
X2205386Y1784375D1*
X2196197Y1785759D1*
X2187475Y1788963D1*
X2179577Y1793857D1*
X2177975Y1795371D1*
X2086757Y1795370D1*
X2084537Y1795133D1*
X2082159Y1795047D1*
X1536457D1*
X4956356Y1630660D2*
X4953597Y1621786D1*
X4949110Y1613651D1*
X4943076Y1606584D1*
X4935743Y1600877D1*
X4927412Y1596764D1*
X4918423Y1594411D1*
X4909144Y1593915D1*
X4899955Y1595298D1*
X4891234Y1598503D1*
X4883336Y1603396D1*
X4876584Y1609780D1*
X4871256Y1617392D1*
X4867570Y1625921D1*
X4865675Y1635018D1*
X4865650Y1644310D1*
X4867496Y1653416D1*
X4871138Y1661965D1*
X4876427Y1669605D1*
X4883144Y1676025D1*
X4891016Y1680961D1*
X4899720Y1684211D1*
X4908902Y1685642D1*
X4918182Y1685196D1*
X4927184Y1682891D1*
X4935537Y1678820D1*
X4942900Y1673152D1*
X4948971Y1666118D1*
X4953501Y1658007D1*
X4956307Y1649148D1*
X4957272Y1639785D1*
X4956356Y1630660D1*
X3262739Y1745819D2*
X3259980Y1736945D1*
X3255493Y1728810D1*
X3250655Y1723144D1*
Y1261875D1*
X3255354Y1256186D1*
X3259885Y1248075D1*
X3262690Y1239217D1*
X3263655Y1229853D1*
X3262739Y1220728D1*
X3259980Y1211854D1*
X3255493Y1203719D1*
X3249459Y1196652D1*
X3242126Y1190945D1*
X3233795Y1186832D1*
X3224806Y1184479D1*
X3215528Y1183983D1*
X3206339Y1185366D1*
X3197617Y1188571D1*
X3189719Y1193465D1*
X3182967Y1199848D1*
X3177639Y1207461D1*
X3173953Y1215990D1*
X3172058Y1225087D1*
X3172033Y1234378D1*
X3173879Y1243484D1*
X3177521Y1252033D1*
X3182810Y1259673D1*
X3184810Y1261585D1*
Y1722921D1*
X3182967Y1724938D1*
X3177639Y1732551D1*
X3173953Y1741080D1*
X3172058Y1750177D1*
X3172033Y1759469D1*
X3173879Y1768575D1*
X3177521Y1777123D1*
X3182810Y1784764D1*
X3189528Y1791184D1*
X3197399Y1796119D1*
X3206104Y1799370D1*
X3215285Y1800801D1*
X3224566Y1800354D1*
X3233567Y1798050D1*
X3241920Y1793979D1*
X3249283Y1788311D1*
X3255354Y1781277D1*
X3259885Y1773165D1*
X3262690Y1764307D1*
X3263655Y1754944D1*
X3262739Y1745819D1*
X877476Y939778D2*
X875219Y930822D1*
X871518Y922360D1*
X866475Y914622D1*
X860227Y907820D1*
X852944Y902139D1*
X844825Y897735D1*
X836093Y894727D1*
X826986Y893197D1*
X817749Y893186D1*
X808638Y894697D1*
X799899Y897686D1*
X791770Y902073D1*
X784476Y907739D1*
X778214Y914528D1*
X773154Y922253D1*
X769434Y930707D1*
X767157Y939659D1*
X766385Y948862D1*
X767138Y958068D1*
X769395Y967024D1*
X773096Y975486D1*
X778139Y983223D1*
X784387Y990025D1*
X791671Y995706D1*
X799789Y1000112D1*
X808521Y1003119D1*
X817629Y1004650D1*
X826865Y1004659D1*
X835976Y1003148D1*
X844715Y1000159D1*
X852844Y995772D1*
X860138Y990108D1*
X866400Y983319D1*
X871461Y975592D1*
X875180Y967138D1*
X877457Y958186D1*
X878230Y948923D1*
X877476Y939778D1*
X1069602Y939761D2*
X1067345Y930806D1*
X1063644Y922344D1*
X1058601Y914606D1*
X1052353Y907804D1*
X1045070Y902123D1*
X1036951Y897718D1*
X1028219Y894710D1*
X1019112Y893180D1*
X1009875Y893171D1*
X1000764Y894681D1*
X992025Y897671D1*
X983896Y902058D1*
X976602Y907722D1*
X970340Y914510D1*
X965280Y922238D1*
X961560Y930692D1*
X959283Y939643D1*
X958510Y948846D1*
X959264Y958051D1*
X961521Y967008D1*
X965222Y975470D1*
X970265Y983207D1*
X976513Y990009D1*
X983797Y995690D1*
X991915Y1000094D1*
X1000647Y1003102D1*
X1009755Y1004633D1*
X1018991Y1004643D1*
X1028102Y1003133D1*
X1036841Y1000143D1*
X1044970Y995756D1*
X1052264Y990091D1*
X1058526Y983302D1*
X1063587Y975576D1*
X1067306Y967122D1*
X1069583Y958171D1*
X1070356Y948907D1*
X1069602Y939761D1*
X4941354Y182550D2*
X4933908Y187904D1*
X4925378Y191251D1*
X4916287Y192388D1*
X4873177D1*
X4867630Y191969D1*
X4861581Y190517D1*
X4847232Y185772D1*
X4842105Y183635D1*
X4834510Y178493D1*
X4834180Y178205D1*
X4830618Y182446D1*
X4823177Y187794D1*
X4814647Y191139D1*
X4805556Y192278D1*
X4738570D1*
X4733031Y191860D1*
X4724214Y189367D1*
X4716277Y184772D1*
X4711738Y180699D1*
X4710270Y182446D1*
X4702829Y187794D1*
X4694299Y191139D1*
X4685207Y192278D1*
X4632702D1*
X4627164Y191860D1*
X4618346Y189367D1*
X4610416Y184778D1*
X4603858Y178366D1*
X4596928Y175535D1*
X4589953Y181478D1*
X4581719Y185517D1*
X4566928Y190413D1*
X4561530Y191756D1*
X4555293Y192278D1*
X4545846D1*
X4540301Y191857D1*
X4534251Y190407D1*
X4519902Y185660D1*
X4514776Y183524D1*
X4507188Y178390D1*
X4501096Y171534D1*
X4491253Y156668D1*
X4489633Y153984D1*
X4486268Y145453D1*
X4485845Y143610D1*
X4480980Y119722D1*
X4480248Y112399D1*
Y98050D1*
X4480669Y92504D1*
X4480995Y90667D1*
X4485853Y66816D1*
X4487373Y61466D1*
X4491244Y53816D1*
X4500736Y39467D1*
X4504147Y35073D1*
X4505659Y33499D1*
X4356917Y33421D1*
X4357196Y35378D1*
X4357180Y96668D1*
X4355610Y105689D1*
X4351587Y113912D1*
X4345428Y120688D1*
X4337623Y125474D1*
X4328783Y127892D1*
X4324692Y128150D1*
X4297909Y128135D1*
X4288881Y126562D1*
X4279142Y123325D1*
X4271064Y118996D1*
X4267303Y115768D1*
X4264402Y112866D1*
X4261339Y109324D1*
X4257571Y105059D1*
X4248793Y107689D1*
X4243925Y108054D1*
X4234323Y108038D1*
X4225294Y106466D1*
X4220912Y104681D1*
X4215831Y102168D1*
X4214060Y103577D1*
X4205592Y107056D1*
X4196490Y108035D1*
X4187474Y106434D1*
X4180555Y103018D1*
X4180341Y103085D1*
X4172398Y106719D1*
X4163340Y108054D1*
X4154269Y106807D1*
X4145907Y103080D1*
X4138917Y97167D1*
X4133854Y89538D1*
X4131122Y80799D1*
X4130936Y71646D1*
X4133311Y62803D1*
X4145903Y33333D1*
X4096119Y33310D1*
X4097471Y36020D1*
X4098866Y39518D1*
X4102014Y49009D1*
X4103377Y58071D1*
X4103357Y73908D1*
X4101735Y82919D1*
X4098550Y92496D1*
X4096951Y96155D1*
X4093568Y102732D1*
X4088213Y109895D1*
X4081807Y116353D1*
X4074341Y121668D1*
X4068043Y124787D1*
X4067138Y125218D1*
X4058348Y127807D1*
X4053622Y128150D1*
X4041175Y128135D1*
X4032146Y126562D1*
X4027630Y124711D1*
X4021055Y121407D1*
X4013684Y115962D1*
X4007035Y109294D1*
X4001764Y101798D1*
X3998361Y94965D1*
X3997003Y91520D1*
X3993858Y81963D1*
X3992516Y72898D1*
X3992530Y57324D1*
X3994104Y48295D1*
X3997365Y38551D1*
X3998739Y35358D1*
X3999764Y33265D1*
X280335Y31556D1*
X280539Y174703D1*
X286938Y175142D1*
X296009Y176600D1*
X304909Y178877D1*
X313566Y181954D1*
X321907Y185804D1*
X329862Y190399D1*
X337367Y195697D1*
X344360Y201656D1*
X350782Y208226D1*
X356579Y215352D1*
X361705Y222976D1*
X366115Y231035D1*
X369776Y239462D1*
X372654Y248186D1*
X374727Y257135D1*
X375978Y266238D1*
X376395Y275415D1*
X375976Y284592D1*
X374726Y293693D1*
X373224Y300169D1*
X386911Y286479D1*
X386921Y282587D1*
X388816Y273490D1*
X392503Y264961D1*
X397831Y257348D1*
X404583Y250965D1*
X412480Y246071D1*
X421202Y242866D1*
X430391Y241483D1*
X439669Y241979D1*
X448659Y244332D1*
X456990Y248445D1*
X464323Y254152D1*
X470357Y261219D1*
X474844Y269354D1*
X477602Y278228D1*
X478518Y287474D1*
X477554Y296717D1*
X474748Y305575D1*
X470218Y313686D1*
X464147Y320720D1*
X456783Y326388D1*
X448430Y330459D1*
X439429Y332764D1*
X433241Y333268D1*
X280991Y485526D1*
X281117Y575633D1*
X282734Y578564D1*
X285492Y587438D1*
X286408Y596684D1*
X285444Y605927D1*
X282638Y614785D1*
X281181Y617849D1*
X282332Y1414408D1*
X281944Y1417518D1*
X279134Y1422777D1*
X274206Y1426136D1*
X273408Y1426406D1*
Y1474530D1*
X278247Y1480196D1*
X282734Y1488331D1*
X285492Y1497205D1*
X286408Y1506450D1*
X285444Y1515693D1*
X282638Y1524551D1*
X278108Y1532663D1*
X272037Y1539697D1*
X264673Y1545365D1*
X256320Y1549436D1*
X247319Y1551740D1*
X238038Y1552186D1*
X228857Y1550756D1*
X220152Y1547505D1*
X212281Y1542570D1*
X205563Y1536150D1*
X200274Y1528509D1*
X196633Y1519961D1*
X194786Y1510854D1*
X194811Y1501563D1*
X196706Y1492466D1*
X200392Y1483937D1*
X205720Y1476324D1*
X207563Y1474318D1*
X207560Y1426430D1*
X77969Y1425388D1*
X77970Y1855946D1*
X84706Y1849885D1*
X92332Y1844743D1*
X100600Y1840714D1*
X109348Y1837874D1*
X118406Y1836280D1*
X127597Y1835961D1*
X136743Y1836925D1*
X145667Y1839152D1*
X154193Y1842600D1*
X162156Y1847201D1*
X169402Y1852865D1*
X175789Y1859483D1*
X181193Y1866925D1*
X185508Y1875046D1*
X188652Y1883689D1*
X190562Y1892686D1*
X191201Y1901861D1*
X190556Y1911035D1*
X188642Y1920031D1*
X185493Y1928672D1*
X181173Y1936791D1*
X175766Y1944231D1*
X169375Y1950845D1*
X162126Y1956505D1*
X154160Y1961101D1*
X145631Y1964545D1*
X136707Y1966766D1*
X127560Y1967726D1*
X118369Y1967403D1*
X109312Y1965803D1*
X100566Y1962958D1*
X92301Y1958924D1*
X84677Y1953780D1*
X77969Y1947755D1*
X77970Y2536815D1*
X295238Y2535419D1*
X911735Y1918915D1*
X910793Y1915626D1*
X909514Y1906517D1*
X909517Y1897320D1*
X910799Y1888214D1*
X913337Y1879373D1*
X917080Y1870972D1*
X921957Y1863175D1*
X927870Y1856130D1*
X934706Y1849979D1*
X942332Y1844837D1*
X950600Y1840808D1*
X959348Y1837969D1*
X968406Y1836374D1*
X977597Y1836055D1*
X986743Y1837020D1*
X995667Y1839247D1*
X1004193Y1842694D1*
X1012156Y1847295D1*
X1019402Y1852959D1*
X1025789Y1859577D1*
X1031193Y1867018D1*
X1035508Y1875140D1*
X1038652Y1883783D1*
X1040562Y1892781D1*
X1041201Y1901955D1*
X1040556Y1911130D1*
X1038642Y1920126D1*
X1035493Y1928766D1*
X1031173Y1936886D1*
X1025766Y1944325D1*
X1019375Y1950940D1*
X1012126Y1956600D1*
X1004160Y1961196D1*
X995631Y1964639D1*
X986707Y1966861D1*
X977560Y1967820D1*
X968369Y1967496D1*
X959312Y1965898D1*
X958227Y1965545D1*
X388954Y2534823D1*
X1168067Y2529833D1*
X1171178Y2530206D1*
X1176451Y2532991D1*
X1179836Y2537907D1*
X1180647Y2542378D1*
X1180651Y2814795D1*
X4362079Y2814946D1*
X4361010Y2814277D1*
X4354293Y2807857D1*
X4349004Y2800217D1*
X4345362Y2791668D1*
X4344525Y2788627D1*
X4338923Y2795118D1*
X4331559Y2800786D1*
X4323206Y2804857D1*
X4314205Y2807161D1*
X4304924Y2807608D1*
X4295743Y2806177D1*
X4287038Y2802927D1*
X4279167Y2797991D1*
X4272449Y2791571D1*
X4267160Y2783930D1*
X4263518Y2775382D1*
X4261672Y2766276D1*
X4261682Y2762619D1*
X4145757Y2646696D1*
X4144136Y2644954D1*
X4139168Y2637262D1*
X4136509Y2628492D1*
X4136114Y2623396D1*
X4136113Y2475182D1*
X4130933Y2477706D1*
X4121932Y2480010D1*
X4115744Y2480514D1*
X3841437Y2754815D1*
X3840531Y2763488D1*
X3837726Y2772346D1*
X3833196Y2780458D1*
X3827125Y2787492D1*
X3819761Y2793160D1*
X3811408Y2797231D1*
X3802407Y2799535D1*
X3793126Y2799982D1*
X3783945Y2798551D1*
X3775240Y2795301D1*
X3767369Y2790365D1*
X3760651Y2783945D1*
X3755362Y2776304D1*
X3751720Y2767756D1*
X3749874Y2758650D1*
X3749899Y2749358D1*
X3751794Y2740261D1*
X3755480Y2731732D1*
X3760808Y2724119D1*
X3767560Y2717736D1*
X3775458Y2712843D1*
X3784180Y2709638D1*
X3793369Y2708255D1*
X3794928Y2708210D1*
X4069413Y2433726D1*
X4069424Y2429833D1*
X4071319Y2420736D1*
X4075005Y2412207D1*
X4080333Y2404594D1*
X4087085Y2398211D1*
X4094983Y2393318D1*
X4103705Y2390113D1*
X4112894Y2388730D1*
X4122172Y2389226D1*
X4131161Y2391579D1*
X4136114Y2393777D1*
Y2292324D1*
X4134938Y2296035D1*
X4130408Y2304147D1*
X4125706Y2309594D1*
X4125709Y2319186D1*
X4125623Y2321564D1*
X4123698Y2330516D1*
X4119375Y2338598D1*
X4115991Y2342541D1*
X3753770Y2704762D1*
X3747906Y2709429D1*
X3739539Y2713151D1*
X3730471Y2714424D1*
X3329852Y2714423D1*
X3329466Y2714869D1*
X3322102Y2720537D1*
X3313749Y2724608D1*
X3304748Y2726912D1*
X3295467Y2727358D1*
X3286286Y2725928D1*
X3277581Y2722677D1*
X3269710Y2717741D1*
X3262992Y2711322D1*
X3257703Y2703681D1*
X3254062Y2695133D1*
X3252215Y2686026D1*
X3252240Y2676735D1*
X3254135Y2667638D1*
X3257822Y2659109D1*
X3263150Y2651496D1*
X3269902Y2645113D1*
X3277799Y2640219D1*
X3286521Y2637014D1*
X3295710Y2635631D1*
X3304988Y2636127D1*
X3313978Y2638480D1*
X3322308Y2642593D1*
X3329642Y2648301D1*
X3329936Y2648579D1*
X3716828Y2648585D1*
X4041816Y2323596D1*
X4040339Y2323667D1*
X4031157Y2322236D1*
X4022453Y2318986D1*
X4017987Y2316185D1*
X4017709Y2316270D1*
X4016967Y2316840D1*
X4008614Y2320911D1*
X3999613Y2323215D1*
X3990332Y2323661D1*
X3981151Y2322231D1*
X3972446Y2318980D1*
X3964575Y2314045D1*
X3957857Y2307625D1*
X3952568Y2299984D1*
X3948927Y2291436D1*
X3947080Y2282329D1*
X3947105Y2273038D1*
X3949000Y2263941D1*
X3952686Y2255412D1*
X3958014Y2247799D1*
X3959857Y2245793D1*
X3959856Y2228415D1*
X3953140Y2221707D1*
X3803832D1*
X3796386Y2220860D1*
X3787839Y2217576D1*
X3780513Y2212051D1*
X3754545Y2186084D1*
X3749878Y2180219D1*
X3746156Y2171853D1*
X3744883Y2162785D1*
Y1471073D1*
X3744969Y1468696D1*
X3746588Y1460622D1*
X3746308Y1437840D1*
X3743902Y1435539D1*
X3738613Y1427899D1*
X3734971Y1419350D1*
X3733125Y1410244D1*
X3733150Y1400953D1*
X3735045Y1391856D1*
X3738731Y1383327D1*
X3744059Y1375714D1*
X3750811Y1369331D1*
X3758709Y1364437D1*
X3767430Y1361232D1*
X3776619Y1359849D1*
X3785898Y1360345D1*
X3794887Y1362698D1*
X3803218Y1366811D1*
X3810551Y1372518D1*
X3816585Y1379585D1*
X3821072Y1387720D1*
X3823831Y1396594D1*
X3824747Y1405840D1*
X3823782Y1415083D1*
X3820976Y1423941D1*
X3816446Y1432052D1*
X3812148Y1437033D1*
X3812542Y1468820D1*
X3811697Y1476677D1*
X3810728Y1480037D1*
X3810723Y1836776D1*
X4031433Y1616091D1*
X4002272Y1616096D1*
X3998874Y1620031D1*
X3991510Y1625699D1*
X3983157Y1629770D1*
X3974156Y1632075D1*
X3964875Y1632521D1*
X3955694Y1631091D1*
X3946990Y1627840D1*
X3939118Y1622904D1*
X3932400Y1616484D1*
X3927112Y1608844D1*
X3923470Y1600295D1*
X3921623Y1591189D1*
X3921648Y1581898D1*
X3923543Y1572801D1*
X3927230Y1564272D1*
X3932558Y1556659D1*
X3939310Y1550276D1*
X3947207Y1545382D1*
X3955929Y1542177D1*
X3965118Y1540794D1*
X3974396Y1541290D1*
X3983386Y1543643D1*
X3991717Y1547756D1*
X3994917Y1550248D1*
X4127142Y1550253D1*
X4128614Y1548148D1*
X4135366Y1541765D1*
X4143264Y1536871D1*
X4151986Y1533667D1*
X4161175Y1532283D1*
X4170453Y1532780D1*
X4179442Y1535133D1*
X4187773Y1539245D1*
X4195106Y1544953D1*
X4201140Y1552020D1*
X4205627Y1560155D1*
X4208386Y1569029D1*
X4209302Y1578154D1*
X4209243Y1580475D1*
X4207837Y1589660D1*
X4204610Y1598374D1*
X4199697Y1606260D1*
X4193295Y1612995D1*
X4185669Y1618303D1*
X4177131Y1621969D1*
X4168029Y1623840D1*
X4158738Y1623841D1*
X4154818Y1623035D1*
X4154787Y1623257D1*
X4157198Y1631013D1*
X4158114Y1640138D1*
X4157427Y1648054D1*
X4154907Y1656997D1*
X4150639Y1665251D1*
X4144797Y1672476D1*
X4137619Y1678378D1*
X4129402Y1682714D1*
X4120479Y1685306D1*
X4111217Y1686050D1*
X4101995Y1684913D1*
X4093190Y1681945D1*
X4085163Y1677264D1*
X4080466Y1673055D1*
X4067551Y1673066D1*
X3810728Y1929892D1*
X3810734Y2149154D1*
X3817451Y2155862D1*
X3867455D1*
X3862938Y2148694D1*
X3860280Y2139924D1*
X3859885Y2134781D1*
Y2084849D1*
X3857885Y2082937D1*
X3852596Y2075297D1*
X3848954Y2066748D1*
X3847108Y2057642D1*
X3847133Y2048350D1*
X3849028Y2039253D1*
X3852714Y2030724D1*
X3858042Y2023112D1*
X3864794Y2016728D1*
X3872692Y2011835D1*
X3881413Y2008630D1*
X3890602Y2007247D1*
X3899881Y2007743D1*
X3908870Y2010096D1*
X3917201Y2014209D1*
X3924534Y2019916D1*
X3930568Y2026983D1*
X3935055Y2035118D1*
X3937814Y2043992D1*
X3938730Y2053238D1*
X3937765Y2062480D1*
X3934959Y2071339D1*
X3930429Y2079450D1*
X3925727Y2084898D1*
X3925735Y2121217D1*
X3932448Y2127925D1*
X4464575D1*
X4472021Y2128773D1*
X4480568Y2132056D1*
X4487881Y2137568D1*
X4629625Y2279315D1*
X4735117Y2279314D1*
X4736080Y2277843D1*
X4742343Y2271054D1*
X4749638Y2265388D1*
X4755294Y2262148D1*
X4749530Y2259021D1*
X4742248Y2253340D1*
X4736000Y2246538D1*
X4730957Y2238801D1*
X4727256Y2230339D1*
X4724997Y2221383D1*
X4724245Y2212177D1*
X4725018Y2202974D1*
X4727295Y2194022D1*
X4731014Y2185568D1*
X4736073Y2177843D1*
X4742337Y2171054D1*
X4749631Y2165388D1*
X4755287Y2162150D1*
X4749524Y2159022D1*
X4742241Y2153341D1*
X4735993Y2146539D1*
X4730950Y2138802D1*
X4727249Y2130340D1*
X4724992Y2121385D1*
X4724239Y2112178D1*
X4725012Y2102975D1*
X4727289Y2094024D1*
X4731008Y2085570D1*
X4736068Y2077844D1*
X4742331Y2071055D1*
X4749625Y2065390D1*
X4757753Y2061003D1*
X4766492Y2058013D1*
X4775604Y2056503D1*
X4784840Y2056513D1*
X4793948Y2058043D1*
X4802680Y2061051D1*
X4810798Y2065455D1*
X4818081Y2071136D1*
X4824329Y2077938D1*
X4829373Y2085676D1*
X4833073Y2094138D1*
X4835331Y2103094D1*
X4836084Y2112299D1*
X4835311Y2121503D1*
X4833034Y2130454D1*
X4829315Y2138908D1*
X4824255Y2146635D1*
X4817992Y2153424D1*
X4810698Y2159088D1*
X4805041Y2162327D1*
X4810804Y2165454D1*
X4818088Y2171135D1*
X4824336Y2177937D1*
X4829379Y2185675D1*
X4833080Y2194136D1*
X4835337Y2203093D1*
X4836091Y2212298D1*
X4835318Y2221501D1*
X4833041Y2230453D1*
X4829322Y2238907D1*
X4824261Y2246634D1*
X4817999Y2253423D1*
X4810703Y2259087D1*
X4805047Y2262327D1*
X4810811Y2265454D1*
X4818093Y2271135D1*
X4824341Y2277937D1*
X4829385Y2285675D1*
X4833087Y2294136D1*
X4835344Y2303093D1*
X4836097Y2312298D1*
X4835324Y2321501D1*
X4833047Y2330453D1*
X4829328Y2338907D1*
X4824268Y2346634D1*
X4818005Y2353423D1*
X4810710Y2359087D1*
X4805054Y2362327D1*
X4810818Y2365454D1*
X4818100Y2371135D1*
X4824348Y2377937D1*
X4829391Y2385675D1*
X4833092Y2394136D1*
X4835350Y2403093D1*
X4836102Y2412298D1*
X4835331Y2421501D1*
X4833054Y2430453D1*
X4829335Y2438907D1*
X4828549Y2440106D1*
X4856213Y2467761D1*
X4875293Y2486841D1*
X4879958Y2492705D1*
X4883680Y2501071D1*
X4884953Y2510139D1*
Y2640379D1*
X4884106Y2647827D1*
X4880822Y2656374D1*
X4875310Y2663686D1*
X4835409Y2703584D1*
X4836122Y2712298D1*
X4835349Y2721501D1*
X4833072Y2730453D1*
X4829353Y2738907D1*
X4825286Y2745117D1*
X5017594Y2745114D1*
X5019972Y2745199D1*
X5028924Y2747125D1*
X5037005Y2751448D1*
X5040890Y2754773D1*
X5101088Y2814978D1*
X5161930Y2814975D1*
X5159995Y1220668D1*
X4926657Y1237241D1*
X4923529Y1237070D1*
X4918087Y1234631D1*
X4914392Y1229944D1*
X4913272Y1224747D1*
X4914513Y390087D1*
X4914911Y386978D1*
X4917736Y381727D1*
X4922680Y378382D1*
X4926984Y377605D1*
X5173369Y376755D1*
X5173526Y177480D1*
X5171861Y177815D1*
X5165458Y184369D1*
X5157635Y189139D1*
X5148869Y191833D1*
X5142478Y192388D1*
X5099392D1*
X5093846Y191969D1*
X5087715Y190491D1*
X5073478Y185744D1*
X5070012Y184391D1*
X5062182Y179617D1*
X5059054Y176823D1*
X5054280Y172050D1*
X5052381Y170012D1*
X5048354Y167087D1*
X5038861Y176689D1*
X5034671Y180333D1*
X5034350Y180571D1*
X5037975Y181954D1*
X5046316Y185804D1*
X5054272Y190399D1*
X5061777Y195697D1*
X5068769Y201656D1*
X5075192Y208226D1*
X5080988Y215352D1*
X5086114Y222976D1*
X5090525Y231035D1*
X5094185Y239462D1*
X5097063Y248186D1*
X5099136Y257135D1*
X5100387Y266238D1*
X5100804Y275411D1*
X5100698Y280029D1*
X5099861Y289177D1*
X5098196Y298211D1*
X5095714Y307058D1*
X5092440Y315640D1*
X5088398Y323891D1*
X5083622Y331739D1*
X5078154Y339121D1*
X5072035Y345974D1*
X5065320Y352243D1*
X5058062Y357875D1*
X5050323Y362824D1*
X5042164Y367049D1*
X5033656Y370514D1*
X5024867Y373192D1*
X5015873Y375058D1*
X5006745Y376100D1*
X4997560Y376307D1*
X4988395Y375677D1*
X4979325Y374218D1*
X4970425Y371938D1*
X4961769Y368860D1*
X4953429Y365008D1*
X4945475Y360412D1*
X4937970Y355112D1*
X4930979Y349152D1*
X4924559Y342581D1*
X4918762Y335453D1*
X4913639Y327828D1*
X4909230Y319768D1*
X4905572Y311341D1*
X4902696Y302615D1*
X4900625Y293665D1*
X4899375Y284564D1*
X4898959Y275387D1*
X4899379Y266210D1*
X4900633Y257109D1*
X4902709Y248159D1*
X4905589Y239436D1*
X4909251Y231010D1*
X4913664Y222953D1*
X4918791Y215329D1*
X4924592Y208205D1*
X4931014Y201636D1*
X4938009Y195680D1*
X4945516Y190383D1*
X4953472Y185793D1*
X4957912Y183744D1*
X4954672Y181909D1*
X4948323Y176824D1*
X4947163Y175664D1*
X4941354Y182550D1*
X281182Y617391D2*
X282638Y614785D1*
X285444Y605927D1*
X286408Y596563D1*
X285492Y587438D1*
X282734Y578564D1*
X281117Y575633D1*
X273408Y1474530D2*
X278247Y1480196D1*
X282734Y1488331D1*
X285492Y1497205D1*
X286408Y1506450D1*
X285444Y1515693D1*
X282638Y1524551D1*
X278108Y1532663D1*
X272037Y1539697D1*
X264673Y1545365D1*
X256320Y1549436D1*
X247319Y1551740D1*
X238038Y1552186D1*
X228857Y1550756D1*
X220152Y1547505D1*
X212281Y1542570D1*
X205563Y1536150D1*
X200274Y1528509D1*
X196633Y1519961D1*
X194786Y1510854D1*
X194811Y1501563D1*
X196706Y1492466D1*
X200392Y1483937D1*
X205720Y1476324D1*
X207560Y1474585D1*
X1349545Y1795052D2*
X1349303Y1794769D1*
X1341970Y1789062D1*
X1333639Y1784949D1*
X1324650Y1782596D1*
X1315371Y1782100D1*
X1306182Y1783483D1*
X1297461Y1786688D1*
X1289563Y1791581D1*
X1282811Y1797965D1*
X1277483Y1805577D1*
X1273797Y1814106D1*
X1271902Y1823203D1*
X1271877Y1832495D1*
X1273723Y1841601D1*
X1277365Y1850150D1*
X1282654Y1857790D1*
X1289371Y1864210D1*
X1297243Y1869146D1*
X1305948Y1872396D1*
X1315129Y1873827D1*
X1324409Y1873381D1*
X1333411Y1871076D1*
X1341764Y1867005D1*
X1349127Y1861337D1*
X1349513Y1860891D1*
X3366780Y2171571D2*
X3369004Y2169346D1*
X3366780Y2171571D1*
X3378661Y2136840D2*
Y1312050D1*
X3383361Y1306362D1*
X3387891Y1298251D1*
X3390697Y1289392D1*
X3391661Y1280029D1*
X3390745Y1270904D1*
X3387987Y1262030D1*
X3383500Y1253895D1*
X3377466Y1246828D1*
X3370133Y1241121D1*
X3361802Y1237008D1*
X3352812Y1234655D1*
X3343534Y1234159D1*
X3334345Y1235542D1*
X3325623Y1238747D1*
X3317726Y1243640D1*
X3310974Y1250024D1*
X3305646Y1257636D1*
X3301959Y1266165D1*
X3300064Y1275262D1*
X3300039Y1284554D1*
X3301886Y1293660D1*
X3305528Y1302209D1*
X3310816Y1309849D1*
X3312816Y1311761D1*
Y2125711D1*
X3309471Y2126440D1*
X3300749Y2129644D1*
X3292852Y2134538D1*
X3286100Y2140921D1*
X3280772Y2148534D1*
X3277085Y2157063D1*
X3275190Y2166160D1*
X3275165Y2175451D1*
X3277012Y2184558D1*
X3280654Y2193106D1*
X3285942Y2200747D1*
X3292660Y2207167D1*
X3300531Y2212102D1*
X3309236Y2215353D1*
X3318417Y2216783D1*
X3327698Y2216337D1*
X3336699Y2214033D1*
X3345052Y2209962D1*
X3352416Y2204294D1*
X3358487Y2197260D1*
X3363017Y2189148D1*
X3365823Y2180290D1*
X3366728Y2171617D1*
X3372335Y2165458D1*
X3376651Y2157382D1*
X3378575Y2148429D1*
X3378661Y2146052D1*
Y2136840D1*
X4452615Y998894D2*
X4449957Y990123D1*
X4444988Y982432D1*
X4443367Y980690D1*
X4318862Y856185D1*
X4314972Y852854D1*
X4306898Y848538D1*
X4297945Y846614D1*
X4295568Y846528D1*
X3951646Y846533D1*
X3951404Y846249D1*
X3944071Y840542D1*
X3935740Y836429D1*
X3926751Y834076D1*
X3917472Y833580D1*
X3908283Y834963D1*
X3899562Y838168D1*
X3891664Y843062D1*
X3884912Y849445D1*
X3879584Y857058D1*
X3875898Y865587D1*
X3874003Y874684D1*
X3873978Y883975D1*
X3875824Y893081D1*
X3879466Y901630D1*
X3884755Y909270D1*
X3891472Y915690D1*
X3899344Y920626D1*
X3908049Y923877D1*
X3917230Y925307D1*
X3926510Y924861D1*
X3935512Y922556D1*
X3943865Y918486D1*
X3951228Y912818D1*
X3951614Y912371D1*
X4281933Y912373D1*
X4387159Y1017601D1*
X4387165Y1215228D1*
Y1503244D1*
X4249306Y1641104D1*
X4247741Y1641152D1*
X4238552Y1642535D1*
X4229831Y1645740D1*
X4221933Y1650634D1*
X4215181Y1657017D1*
X4209853Y1664630D1*
X4206167Y1673159D1*
X4204272Y1682256D1*
X4204247Y1691547D1*
X4206093Y1700654D1*
X4209735Y1709202D1*
X4215024Y1716843D1*
X4221741Y1723262D1*
X4229613Y1728198D1*
X4238318Y1731449D1*
X4247499Y1732879D1*
X4256780Y1732433D1*
X4265781Y1730129D1*
X4274134Y1726058D1*
X4281497Y1720390D1*
X4287568Y1713356D1*
X4292098Y1705244D1*
X4294904Y1696386D1*
X4295810Y1687713D1*
X4443352Y1540176D1*
X4446684Y1536285D1*
X4451000Y1528210D1*
X4452924Y1519257D1*
X4453010Y1516881D1*
Y1003992D1*
X4452615Y998894D1*
X4809806Y1333059D2*
X4817888Y1337382D1*
X4826840Y1339307D1*
X4829218Y1339392D1*
X4847860Y1339394D1*
X4851331Y1342710D1*
X4859202Y1347646D1*
X4867907Y1350896D1*
X4877088Y1352327D1*
X4886369Y1351881D1*
X4895370Y1349576D1*
X4903723Y1345505D1*
X4911087Y1339837D1*
X4917157Y1332803D1*
X4921688Y1324692D1*
X4924493Y1315833D1*
X4925458Y1306470D1*
X4924542Y1297345D1*
X4921783Y1288471D1*
X4917297Y1280336D1*
X4911262Y1273269D1*
X4903929Y1267562D1*
X4895598Y1263449D1*
X4886609Y1261096D1*
X4877331Y1260600D1*
X4868142Y1261983D1*
X4859420Y1265188D1*
X4851522Y1270081D1*
X4847862Y1273541D1*
X4842864Y1273547D1*
X4752343Y1183035D1*
X4752337Y1099357D1*
X4757039Y1093909D1*
X4761570Y1085798D1*
X4764375Y1076940D1*
X4765340Y1067576D1*
X4764424Y1058451D1*
X4761665Y1049577D1*
X4757178Y1041442D1*
X4751144Y1034375D1*
X4743811Y1028668D1*
X4735480Y1024555D1*
X4726491Y1022202D1*
X4717213Y1021706D1*
X4708024Y1023089D1*
X4699302Y1026294D1*
X4691404Y1031188D1*
X4684652Y1037571D1*
X4679324Y1045184D1*
X4675638Y1053713D1*
X4673743Y1062810D1*
X4673718Y1072101D1*
X4675564Y1081207D1*
X4679206Y1089756D1*
X4684495Y1097396D1*
X4686495Y1099308D1*
Y1196648D1*
X4686890Y1201755D1*
X4689549Y1210516D1*
X4694517Y1218207D1*
X4696138Y1219949D1*
X4805920Y1329731D1*
X4809806Y1333059D1*
X1561165Y975371D2*
D22*
X1648690Y1062888D1*
X1561169Y1062892D2*
X1648686Y975367D1*
X1891115Y269804D2*
X1769654Y391266D1*
Y269804D2*
X1891115Y391266D1*
X5028163Y1502381D2*
X4945593Y1584953D1*
X4945592Y1502382D2*
X5028164Y1584953D1*
X621862Y1948487D2*
X528694Y1855299D1*
X621871Y1855310D2*
X528684Y1948476D1*
X3541849Y2236226D2*
X3447253Y2141638D1*
X3541845Y2141634D2*
X3447257Y2236230D1*
X3859490Y496318D2*
X3902542Y539371D1*
X3859488Y582424D2*
X3902542Y539371D1*
X5086975Y1790955D2*
X4994500Y1883423D1*
X4994504Y1790951D2*
X5086971Y1883425D1*
X5136055Y2056318D2*
X5024268Y2168119D1*
X5024260Y2056325D2*
X5136062Y2168113D1*
X5119682Y2172699D2*
X5040652Y2251740D1*
X5040647Y2172705D2*
X5119688Y2251735D1*
X5119689Y2272698D2*
X5040659Y2351739D1*
X5040654Y2272703D2*
X5119694Y2351734D1*
X5119696Y2372698D2*
X5040665Y2451739D1*
X5040660Y2372703D2*
X5119701Y2451734D1*
X5119702Y2472699D2*
X5040672Y2551740D1*
X5040667Y2472705D2*
X5119707Y2551735D1*
X5119709Y2572698D2*
X5040677Y2651739D1*
X5040673Y2572703D2*
X5119714Y2651734D1*
X5119715Y2672698D2*
X5040684Y2751739D1*
X5040678Y2672703D2*
X5119719Y2751734D1*
D24*
X112555Y510043D3*
D33*
X1604920Y819130D3*
D34*
X1604924Y919130D3*
X1604928Y1019130D3*
D35*
X2298385Y330533D3*
X2142385Y330534D3*
X1986385D3*
X1830385Y330535D3*
D147*
X1821453Y592846D3*
D34*
X1921453Y592844D3*
D35*
X2018895Y3801119D3*
X1768895Y3801102D3*
X2626904Y3813044D3*
X2376904Y3813035D3*
X1289500Y3796667D3*
X1539500Y3796682D3*
D36*
X3770705Y4637513D3*
X4636847Y4637631D3*
X4786518Y4165211D3*
X3699904Y4165062D3*
X151937Y3261295D3*
X151828Y4127436D3*
X624251Y4277102D3*
X624387Y3190488D3*
X2390673Y4637606D3*
X3256815Y4637650D3*
X3406446Y4165217D3*
X2319832Y4165161D3*
D24*
X4808010Y2961033D3*
X4414010Y2961025D3*
X4808006Y3146033D3*
X4414006Y3146025D3*
X4808001Y3378033D3*
X4414001Y3378025D3*
X4890495Y3663035D3*
X4331495Y3663023D3*
D36*
X151890Y3045690D3*
X151868Y3911831D3*
X624305Y4061450D3*
X624333Y2974836D3*
X1053159Y4637613D3*
X1919301Y4637644D3*
X2068925Y4165209D3*
X982310Y4165169D3*
D38*
X5086878Y1543666D3*
D39*
X4986878Y1543667D3*
D40*
X770856Y2719237D3*
X924400Y2719254D3*
X575278Y1901893D3*
X975278Y1901937D3*
X125278Y1901843D3*
D41*
X3494557Y2388932D3*
D42*
X3494554Y2288932D3*
X3494551Y2188932D3*
X3494548Y2088932D3*
X3494545Y1988932D3*
D43*
X4002544Y439374D3*
D44*
X4002542Y539374D3*
X4002540Y639374D3*
X3902540Y639372D3*
X3902542Y539372D3*
X3902544Y439372D3*
D46*
X5040738Y1837189D3*
X4843887Y1837181D3*
D47*
X5080161Y2112219D3*
D48*
X5080168Y2212220D3*
X5080174Y2312219D3*
X5080180Y2412219D3*
X4780180Y2412238D3*
X5080187Y2512220D3*
X4780187Y2512238D3*
X5080193Y2612219D3*
X4780193Y2612238D3*
X4780174Y2312238D3*
X4780168Y2212238D3*
X4780161Y2112239D3*
X5080199Y2712219D3*
X4780199Y2712238D3*
D36*
X1511169Y3284808D3*
X1886169D3*
X2261169D3*
X2636169D3*
X3011169D3*
X3386169D3*
X3761169D3*
D49*
X1484169Y3095808D3*
X1909169D3*
D55*
X822307Y948923D3*
X1014433Y948907D3*
X5142503Y102914D2*
D136*
X5099392D1*
X5085133Y107667D1*
X5080269Y112530D1*
X5075516Y122037D1*
Y136407D1*
X5080269Y145913D1*
X5085133Y150777D1*
X5099392Y155530D1*
X5142503D1*
Y55050D1*
X4960032Y131654D2*
X4964785Y141160D1*
X4974402Y150777D1*
X4983908Y155530D1*
X5003031D1*
X5012648Y150777D1*
X5022155Y141160D1*
X5027018Y131654D1*
X5031771Y117284D1*
Y93297D1*
X5027018Y79037D1*
X5022155Y69420D1*
X5012648Y59914D1*
X5003031Y55050D1*
X4983908D1*
X4974402Y59914D1*
X4964785Y69420D1*
X4960032Y79037D1*
X4916287Y155530D2*
Y55050D1*
X4873177D1*
X4858807Y59914D1*
X4854054Y64667D1*
X4849300Y74173D1*
Y88543D1*
X4854054Y98160D1*
X4858807Y102914D1*
X4873177Y107667D1*
X4858807Y112530D1*
X4854054Y117284D1*
X4849300Y126790D1*
Y136407D1*
X4854054Y145913D1*
X4858807Y150777D1*
X4873177Y155530D1*
X4916287D1*
Y107667D2*
X4873177D1*
X4786433Y55050D2*
X4738569Y155420D1*
X4805556D1*
X4685208D2*
X4632702D1*
X4661331Y117173D1*
X4646961D1*
X4637455Y112420D1*
X4632702Y107667D1*
X4627838Y93297D1*
Y83790D1*
X4632702Y69420D1*
X4642208Y59803D1*
X4656578Y55050D1*
X4670948D1*
X4685208Y59803D1*
X4689961Y64667D1*
X4694825Y74173D1*
X4555353Y155420D2*
X4569723Y150666D1*
X4579340Y136296D1*
X4584093Y112420D1*
Y98050D1*
X4579340Y74173D1*
X4569723Y59803D1*
X4555353Y55050D1*
X4545847D1*
X4531477Y59803D1*
X4521970Y74173D1*
X4517107Y98050D1*
Y112420D1*
X4521970Y136296D1*
X4531477Y150666D1*
X4545847Y155420D1*
X4555353D1*
X4521970Y136296D2*
X4579340Y74173D1*
X4324711Y66948D2*
D137*
X4298911D1*
X4290289Y69866D1*
X4287371Y72718D1*
X4284519Y78422D1*
Y84192D1*
X4287371Y89896D1*
X4290289Y92814D1*
X4298911Y95666D1*
X4324711D1*
Y35378D1*
X4304615Y66948D2*
X4284519Y35378D1*
X4258272Y58326D2*
X4223851D1*
Y64096D1*
X4226703Y69866D1*
X4229554Y72718D1*
X4235325Y75570D1*
X4243947D1*
X4249650Y72718D1*
X4255421Y66948D1*
X4258272Y58326D1*
Y52622D1*
X4255421Y44000D1*
X4249650Y38296D1*
X4243947Y35378D1*
X4235325D1*
X4229554Y38296D1*
X4223851Y44000D1*
X4197604Y75570D2*
X4180360Y35378D1*
X4163182Y75570D1*
X4053650Y95666D2*
X4059421Y92814D1*
X4065124Y87044D1*
X4068043Y81340D1*
X4070895Y72718D1*
Y58326D1*
X4068043Y49770D1*
X4065124Y44000D1*
X4059421Y38296D1*
X4053650Y35378D1*
X4042176D1*
X4036473Y38296D1*
X4030703Y44000D1*
X4027851Y49770D1*
X4024999Y58326D1*
Y72718D1*
X4027851Y81340D1*
X4030703Y87044D1*
X4036473Y92814D1*
X4042176Y95666D1*
X4053650D1*
M02*
