M48
INCH
T01C0.02
T02C0.035
T03C0.042
T04C0.052
T05C0.0595
T06C0.064
T07C0.086
T08C0.15
%
T01
X+008910Y+007214
X+009085Y+006210
X+006791Y+006005
X+005054Y+008592
X+003856Y+008928
X+002405Y+005966
X+004326Y+002874
X+005800Y+001129
X+007913Y+002761
X+010374Y+001304
X+012320Y+008353
X+015049Y+016925
X+015044Y+018280
X+013176Y+018280
X+015114Y+021000
X+019875Y+016151
X+022068Y+016959
X+022076Y+018302
X+023593Y+016263
X+022091Y+020931
X+026612Y+026104
X+029393Y+021029
X+029416Y+019691
X+028638Y+018278
X+032177Y+017549
X+033209Y+021709
X+036441Y+022330
X+037802Y+023700
X+039928Y+022778
X+040428Y+022778
X+040928Y+022778
X+041151Y+024346
X+042428Y+024285
X+043644Y+023519
X+040585Y+026160
X+043074Y+027618
X+043892Y+027780
X+037956Y+027541
X+032979Y+026815
X+032940Y+026190
X+038928Y+020531
X+041122Y+016401
X+041634Y+015782
X+042499Y+016870
X+039673Y+015867
X+037788Y+014057
X+033457Y+012800
X+032177Y+012299
X+033551Y+006676
X+033525Y+005647
X+032171Y+004008
X+039197Y+008795
X+044938Y+014174
X+048795Y+013065
X+048781Y+012391
X+047194Y+010676
X+048676Y+006093
X+048213Y+005708
X+047194Y+005628
X+047303Y+003136
X+049015Y+003715
X+049113Y+016398
X+050382Y+029128
X+046379Y+039640
X+032611Y+044179
X+002405Y+015063
T02
X+050869Y+015437
X+049869Y+015437
X+050802Y+021122
X+050802Y+022122
X+050802Y+023122
X+050802Y+024122
X+050802Y+025122
X+050802Y+026122
X+050802Y+027122
X+047802Y+027122
X+047802Y+026122
X+047802Y+025122
X+047802Y+024122
X+047802Y+023122
X+047802Y+022122
X+047802Y+021122
X+010144Y+009489
X+008223Y+009489
T03
X+001126Y+005100
X+016049Y+008191
X+016049Y+009191
X+016049Y+010191
X+018215Y+005928
X+019215Y+005928
X+039025Y+006394
X+040025Y+006394
X+040025Y+005394
X+040025Y+004394
X+039025Y+004394
X+039025Y+005394
X+034945Y+019889
X+034945Y+020889
X+034946Y+021889
X+034946Y+022889
X+034946Y+023889
X+048439Y+018372
X+050407Y+018372
T04
X+007709Y+027192
X+009244Y+027193
X+009753Y+019019
X+005753Y+019019
X+001253Y+019018
T05
X+020189Y+038011
X+017689Y+038011
X+015395Y+037967
X+012895Y+037967
X+023769Y+038130
X+026269Y+038130
T06
X+022984Y+003305
X+021424Y+003305
X+019864Y+003305
X+018304Y+003305
T07
X+037707Y+046375
X+036999Y+041651
X+034064Y+041652
X+032568Y+046377
X+023907Y+046376
X+019193Y+046376
X+020689Y+041652
X+023198Y+041652
X+022612Y+032848
X+018862Y+032848
X+019092Y+030958
X+014842Y+030958
X+015112Y+032848
X+006244Y+031905
X+006243Y+029748
X+001519Y+030457
X+001519Y+032613
X+001519Y+039118
X+001518Y+041274
X+006243Y+040614
X+006243Y+042771
X+009823Y+041652
X+010532Y+046376
X+026362Y+032848
X+030112Y+032848
X+033862Y+032848
X+037612Y+032848
X+044140Y+033780
X+044140Y+031460
X+044140Y+029610
X+048080Y+029610
X+048080Y+031460
X+048080Y+033780
X+048905Y+036630
X+047865Y+041652
X+046368Y+046376
X+043315Y+036630
T08
X+002755Y+002754
X+002755Y+044880
X+049999Y+044880
X+049999Y+002754
T00
M30
